<svg xmlns="http://www.w3.org/2000/svg" id="Layer_1" data-name="Layer 1" viewBox="0 0 384.89 134.39">
  <defs>
    <style>
      .cls-1{fill:#fff;stroke-width:0}
    </style>
  </defs>
  <path d="M223.96 57.86c-.03 1.9.37 3.79 1.15 5.53 2.32 5.07 9.27 6.13 15.2 6.13 5.22 0 13.17-1.42 13.17-7.65 0-4.36-4.48-5.54-22.29-9.66-16.36-3.77-35.04-7.42-35.04-24.37 0-19.47 20.42-27.83 41.69-27.83 22.45 0 42.28 6.98 43.14 27.43h-30.11c.58-3.17-1.16-5.3-3.76-6.71-2.9-1.48-6.13-2.21-9.39-2.11-4.34 0-11.43.94-11.43 5.66.58 5.99 15.34 7.29 29.93 10.59 14.58 3.3 29.1 8.83 29.1 24.25 0 21.95-24.75 28.93-47.77 28.93-11.72 0-45.16-3.41-45.45-30.26l31.86.08Z" class="cls-1"/>
  <path d="M316.13 2h31.13l37.64 84.07h-33.01l-4.34-11.97H314.7l-4.64 11.97h-31.99L316.13 2Zm25.05 54.05-9.27-25.94h-.29l-9.98 25.94h19.53ZM97.99 2h60.65c18.1 0 33.73 8.12 33.73 24.02 0 8.71-4.92 17.9-15.48 21.08 8.68 2.7 14.05 10.47 15.19 20.95.44 4.13.59 14.14 3.48 18.02h-31.84a49.969 49.969 0 0 1-2.61-12.97c-.87-7.98-1.74-16.37-14.33-16.37h-16.96v29.35H97.99V2Zm31.86 36.74h16.65c5.94 0 14.04-.83 14.04-8.37 0-5.3-3.61-8.36-15.78-8.36h-14.9v16.73ZM0 2.01h31.84V31.2h29.82V2.01H93.5v84.06H61.66V55.38H31.84v30.69H0V2.01zm16.77 119.94h-11v7.45h12.91v4.6H.04v-27.81h18.6v4.64H5.77v6.63h11v4.49ZM27.7 134h-5.54v-29.34h5.54V134Zm14.25.39c-3.03 0-5.5-.93-7.4-2.79-1.9-1.86-2.86-4.34-2.86-7.43v-.53c0-2.08.4-3.93 1.2-5.57.8-1.64 1.94-2.9 3.41-3.78 1.47-.88 3.15-1.33 5.03-1.33 2.83 0 5.05.89 6.68 2.67 1.62 1.78 2.44 4.31 2.44 7.58v2.25H37.29c.18 1.35.72 2.43 1.61 3.25.9.82 2.03 1.22 3.41 1.22 2.13 0 3.79-.77 4.98-2.31l2.71 3.04c-.83 1.17-1.95 2.09-3.36 2.74s-2.98.98-4.7.98Zm-.63-16.98c-1.1 0-1.98.37-2.66 1.11-.68.74-1.12 1.8-1.31 3.18h7.68v-.44c-.03-1.23-.36-2.18-.99-2.85-.64-.67-1.54-1.01-2.71-1.01Zm21.05 12.53c1.02 0 1.85-.28 2.48-.84s.97-1.31.99-2.23h5.18c-.01 1.4-.39 2.68-1.15 3.85-.75 1.16-1.78 2.07-3.08 2.71-1.31.64-2.75.96-4.33.96-2.95 0-5.28-.94-6.99-2.82s-2.56-4.47-2.56-7.78v-.36c0-3.18.85-5.72 2.54-7.62 1.69-1.9 4.02-2.85 6.97-2.85 2.58 0 4.66.74 6.22 2.21 1.56 1.47 2.35 3.43 2.38 5.87h-5.18c-.03-1.07-.36-1.95-.99-2.62s-1.48-1.01-2.52-1.01c-1.29 0-2.26.47-2.91 1.41-.66.94-.98 2.46-.98 4.56v.57c0 2.13.32 3.66.97 4.59.65.93 1.64 1.4 2.96 1.4Zm18.61-21.68v5.08h3.53v4.05h-3.53v10.31c0 .76.15 1.31.44 1.64.29.33.85.5 1.68.5.61 0 1.15-.04 1.62-.13v4.18c-1.08.33-2.2.5-3.34.5-3.87 0-5.84-1.95-5.92-5.86V117.4h-3.02v-4.05h3.02v-5.08h5.52Zm18.42 10.26c-.75-.1-1.41-.15-1.99-.15-2.09 0-3.46.71-4.11 2.12v13.52h-5.52v-20.66h5.21l.15 2.46c1.11-1.9 2.64-2.85 4.6-2.85.61 0 1.18.08 1.72.25l-.08 5.31Zm1.3 4.96c0-2.05.39-3.88 1.18-5.48.79-1.6 1.93-2.85 3.41-3.72 1.48-.88 3.21-1.32 5.17-1.32 2.79 0 5.06.85 6.83 2.56 1.76 1.71 2.75 4.02 2.95 6.95l.04 1.41c0 3.17-.89 5.71-2.65 7.63-1.77 1.92-4.14 2.87-7.12 2.87s-5.36-.96-7.13-2.86c-1.78-1.91-2.66-4.51-2.66-7.79v-.25Zm5.52.39c0 1.96.37 3.47 1.11 4.5.74 1.04 1.8 1.56 3.17 1.56s2.38-.51 3.13-1.54 1.13-2.67 1.13-4.93c0-1.93-.38-3.42-1.13-4.48-.75-1.06-1.81-1.59-3.17-1.59s-2.39.53-3.13 1.58c-.74 1.05-1.11 2.68-1.11 4.89Zm22.73-10.53.17 2.39c1.48-1.85 3.46-2.77 5.94-2.77 2.19 0 3.82.64 4.89 1.93 1.07 1.29 1.62 3.21 1.64 5.77v13.35h-5.52v-13.22c0-1.17-.25-2.02-.76-2.55-.51-.53-1.36-.79-2.54-.79-1.55 0-2.72.66-3.5 1.99v14.57h-5.52v-20.66h5.19Zm16.98-5.35c0-.83.28-1.51.83-2.04.55-.53 1.31-.8 2.26-.8s1.69.27 2.25.8.84 1.22.84 2.04-.28 1.53-.85 2.06-1.32.8-2.24.8-1.68-.27-2.24-.8c-.57-.53-.85-1.22-.85-2.06ZM151.8 134h-5.54v-20.66h5.54V134Zm13.33-4.06c1.02 0 1.85-.28 2.48-.84s.97-1.31.99-2.23h5.18c-.01 1.4-.39 2.68-1.15 3.85-.75 1.16-1.78 2.07-3.08 2.71-1.31.64-2.75.96-4.33.96-2.95 0-5.28-.94-6.99-2.82s-2.56-4.47-2.56-7.78v-.36c0-3.18.85-5.72 2.54-7.62 1.69-1.9 4.02-2.85 6.97-2.85 2.58 0 4.66.74 6.22 2.21 1.56 1.47 2.35 3.43 2.38 5.87h-5.18c-.03-1.07-.36-1.95-.99-2.62s-1.48-1.01-2.52-1.01c-1.29 0-2.26.47-2.91 1.41-.66.94-.98 2.46-.98 4.56v.57c0 2.13.32 3.66.97 4.59.65.93 1.64 1.4 2.96 1.4Zm44.93 4.06h-5.73v-11.92h-11.17V134h-5.73v-27.81h5.73v11.27h11.17v-11.27h5.73V134Zm16.81 0c-.26-.5-.44-1.11-.55-1.85-1.34 1.49-3.07 2.23-5.21 2.23-2.02 0-3.7-.59-5.03-1.76s-2-2.65-2-4.43c0-2.19.81-3.87 2.44-5.04s3.97-1.76 7.04-1.78h2.54v-1.18c0-.96-.25-1.72-.74-2.29-.49-.57-1.26-.86-2.32-.86-.93 0-1.66.22-2.19.67-.53.45-.79 1.06-.79 1.83h-5.52c0-1.2.37-2.3 1.11-3.32.74-1.02 1.78-1.82 3.13-2.4 1.35-.58 2.87-.87 4.55-.87 2.55 0 4.57.64 6.06 1.92 1.5 1.28 2.24 3.08 2.24 5.4v8.96c.01 1.96.29 3.44.82 4.45v.32h-5.58Zm-4.56-3.83c.81 0 1.57-.18 2.25-.54.69-.36 1.2-.85 1.53-1.46v-3.55h-2.06c-2.76 0-4.23.96-4.41 2.86l-.02.32c0 .69.24 1.25.73 1.7s1.15.67 1.99.67Zm18.84-16.83.17 2.39c1.48-1.85 3.46-2.77 5.94-2.77 2.19 0 3.82.64 4.89 1.93 1.07 1.29 1.62 3.21 1.64 5.77v13.35h-5.52v-13.22c0-1.17-.26-2.02-.76-2.55-.51-.53-1.36-.79-2.54-.79-1.55 0-2.72.66-3.49 1.99v14.57h-5.52v-20.66h5.19Zm16.16 10.18c0-3.22.72-5.79 2.17-7.7 1.45-1.91 3.42-2.86 5.93-2.86 2.01 0 3.67.75 4.99 2.25v-10.54h5.54v29.34h-4.99l-.27-2.2c-1.37 1.72-3.14 2.58-5.31 2.58-2.43 0-4.38-.96-5.85-2.87-1.47-1.92-2.21-4.58-2.21-7.99Zm5.52.41c0 1.94.34 3.42 1.01 4.46.67 1.03 1.65 1.55 2.94 1.55 1.71 0 2.91-.72 3.61-2.16v-8.17c-.69-1.44-1.88-2.16-3.57-2.16-2.66 0-3.99 2.16-3.99 6.48Zm36.19-.07c0 3.31-.71 5.89-2.12 7.74s-3.39 2.78-5.92 2.78c-2.24 0-4.03-.86-5.37-2.58l-.25 2.2h-4.97v-29.34h5.52v10.52c1.27-1.49 2.95-2.23 5.02-2.23 2.52 0 4.5.93 5.93 2.78s2.15 4.46 2.15 7.82v.31Zm-5.52-.4c0-2.09-.33-3.61-.99-4.57-.66-.96-1.65-1.44-2.96-1.44-1.76 0-2.97.72-3.63 2.16v8.16c.67 1.45 1.9 2.18 3.67 2.18s2.95-.88 3.51-2.64c.27-.84.4-2.12.4-3.84Zm8.26.02c0-2.05.39-3.88 1.18-5.48.79-1.6 1.93-2.85 3.41-3.72s3.21-1.32 5.17-1.32c2.79 0 5.06.85 6.83 2.56 1.76 1.71 2.75 4.02 2.95 6.95l.04 1.41c0 3.17-.89 5.71-2.65 7.63-1.77 1.92-4.15 2.87-7.12 2.87s-5.36-.96-7.13-2.86c-1.78-1.91-2.66-4.51-2.66-7.79v-.25Zm5.52.39c0 1.96.37 3.47 1.11 4.5.74 1.04 1.79 1.56 3.17 1.56s2.38-.51 3.13-1.54 1.13-2.67 1.13-4.93c0-1.93-.38-3.42-1.13-4.48s-1.81-1.59-3.17-1.59-2.39.53-3.13 1.58c-.74 1.05-1.11 2.68-1.11 4.89Zm16.79-.39c0-2.05.39-3.88 1.18-5.48.79-1.6 1.93-2.85 3.41-3.72s3.21-1.32 5.17-1.32c2.79 0 5.06.85 6.83 2.56 1.76 1.71 2.75 4.02 2.95 6.95l.04 1.41c0 3.17-.89 5.71-2.65 7.63-1.77 1.92-4.15 2.87-7.12 2.87s-5.36-.96-7.13-2.86c-1.78-1.91-2.66-4.51-2.66-7.79v-.25Zm5.52.39c0 1.96.37 3.47 1.11 4.5.74 1.04 1.79 1.56 3.17 1.56s2.38-.51 3.13-1.54 1.13-2.67 1.13-4.93c0-1.93-.38-3.42-1.13-4.48s-1.81-1.59-3.17-1.59-2.39.53-3.13 1.58c-.74 1.05-1.11 2.68-1.11 4.89Zm25.16 1.85-1.99 1.99v6.3h-5.52v-29.34h5.52v16.25l1.07-1.37 5.29-6.21h6.63l-7.47 8.61L366.4 134h-6.34l-5.31-8.29Zm24.78 2.57c0-.67-.33-1.21-1-1.59s-1.74-.74-3.22-1.04c-4.91-1.03-7.37-3.12-7.37-6.26 0-1.83.76-3.36 2.28-4.59 1.52-1.23 3.51-1.84 5.97-1.84 2.62 0 4.72.62 6.29 1.85s2.36 2.84 2.36 4.81h-5.52c0-.79-.25-1.44-.76-1.96s-1.31-.77-2.39-.77c-.93 0-1.65.21-2.16.63-.51.42-.76.96-.76 1.6 0 .61.29 1.1.87 1.48.58.38 1.56.7 2.93.97s2.53.58 3.48.93c2.92 1.07 4.37 2.92 4.37 5.56 0 1.88-.81 3.41-2.43 4.57-1.62 1.17-3.71 1.75-6.26 1.75-1.73 0-3.27-.31-4.61-.93-1.34-.62-2.4-1.46-3.16-2.54-.76-1.08-1.15-2.24-1.15-3.49h5.23c.05.98.41 1.73 1.09 2.25.67.52 1.58.78 2.71.78 1.06 0 1.86-.2 2.4-.6.54-.4.81-.93.81-1.58Z" class="cls-1"/>
</svg>
