<svg xmlns="http://www.w3.org/2000/svg" fill="none" viewBox="0 0 200 72">
  <g fill="#fff">
    <path d="M116.376 30.9986c-.016 1.0179.192 2.0305.598 2.9627 1.205 2.7163 4.817 3.2842 7.898 3.2842 2.712 0 6.843-.7608 6.843-4.0986 0-2.3358-2.327-2.968-11.582-5.1753-8.501-2.0198-18.208-3.9753-18.208-13.0564 0-10.43111 10.611-14.91001 21.664-14.91001 11.665 0 21.969 3.73956 22.416 14.69571h-15.646c.302-1.6983-.603-2.8395-1.954-3.5949-1.506-.7929-3.185-1.184-4.879-1.13043-2.255 0-5.939.50363-5.939 3.03233.301 3.2092 7.971 3.9057 15.552 5.6737 7.576 1.768 15.121 4.7307 15.121 12.992 0 11.7598-12.86 15.4994-24.822 15.4994-6.09 0-23.4666-1.8269-23.6173-16.2119l16.5553.0428v-.0053Z"/>
    <path d="M164.27 1.0715h16.176l19.559 45.0409h-17.153l-2.255-6.413h-17.07l-2.411 6.413h-16.623L164.27 1.0715Zm13.017 28.9575-4.817-13.8974h-.151l-5.186 13.8974h10.154ZM50.9184 1.0715h31.5155c9.4053 0 17.5271 4.35033 17.5271 12.8688 0 4.6664-2.5566 9.59-8.0438 11.2937 4.5103 1.4466 7.3008 5.6094 7.8931 11.2241.2287 2.2126.3067 7.5755 1.8087 9.6543H85.0737c-.7488-2.2441-1.2049-4.5808-1.3563-6.9488-.4521-4.2753-.9041-8.7703-7.4463-8.7703h-8.8129v15.7244H50.9184V1.0715Zm16.5554 19.6836h8.6518c3.0866 0 7.2956-.4447 7.2956-4.4842 0-2.8395-1.8758-4.479-8.1997-4.479H67.479v8.9632h-.0052ZM0 1.07686h16.545V16.7155h15.4953V1.07686h16.545V46.1124h-16.545V29.6701H16.545v16.4423H0V1.07686ZM8.71418 65.3352H2.99826v3.9914h6.70841v2.4645H.02079V56.8917h9.66509v2.4859H2.99826v3.5521h5.71592v2.4055Zm5.67952 6.4559H11.515V56.072h2.8787v15.7191ZM21.7984 72c-1.5744 0-2.8579-.4982-3.8452-1.4947-.9873-.9965-1.4862-2.3252-1.4862-3.9807v-.2839c0-1.1144.2079-2.1056.6236-2.9842.4157-.8786 1.0081-1.5537 1.7719-2.0252.7639-.4714 1.6369-.7125 2.6138-.7125 1.4705 0 2.6241.4768 3.4711 1.4305.8418.9536 1.2679 2.3091 1.2679 4.061v1.2054H19.377c.0935.7233.3741 1.3019.8366 1.7412.4676.4393 1.0548.6536 1.7719.6536 1.1068 0 1.9694-.4125 2.5878-1.2375l1.4081 1.6286c-.4312.6269-1.0132 1.1198-1.7459 1.468-.7327.3482-1.5485.5251-2.4423.5251l.0052.0053Zm-.3273-9.0971c-.5716 0-1.0289.1982-1.3822.5947-.3534.3964-.582.9643-.6808 1.7037h3.9908v-.2357c-.0156-.659-.1871-1.168-.5144-1.5269-.3326-.359-.8003-.5412-1.4082-.5412l-.0052.0054Zm10.9382 6.713c.53 0 .9613-.15 1.2886-.45.3274-.3.5041-.7019.5145-1.1948h2.6916c-.0052.7501-.2026 1.4359-.5975 2.0627-.3897.6215-.925 1.109-1.6005 1.4519-.6807.3429-1.429.5143-2.25.5143-1.5329 0-2.7436-.5036-3.6322-1.5108-.8885-1.0072-1.3302-2.3948-1.3302-4.1682v-.1929c0-1.7037.4417-3.0645 1.3198-4.0824.8782-1.0179 2.0889-1.5269 3.6218-1.5269 1.3407 0 2.4215.3965 3.2321 1.184.8107.7876 1.2212 1.8377 1.2367 3.1449h-2.6916c-.0156-.5733-.1871-1.0447-.5145-1.4037-.3273-.3589-.769-.5411-1.3094-.5411-.6703 0-1.1744.2518-1.5121.7554-.343.5036-.5093 1.318-.5093 2.4431v.3053c0 1.1412.1663 1.9609.5041 2.4591.3377.4983.8521.7501 1.5381.7501Zm9.6703-11.6151v2.7216h1.8342v2.1698h-1.8342v5.5236c0 .4072.0779.7018.2286.8786.1507.1768.4417.2679.873.2679.3169 0 .5975-.0214.8418-.0696v2.2394c-.5612.1768-1.1432.2679-1.7356.2679-2.011 0-3.0346-1.0447-3.0762-3.1395v-5.963h-1.5693v-2.1698h1.5693v-2.7216h2.8684v-.0053Zm9.5715 5.4968c-.3897-.0536-.7327-.0804-1.034-.0804-1.0861 0-1.798.3804-2.1357 1.1358v7.2434H45.613V60.7277h2.7073l.0779 1.318c.5768-1.0179 1.3719-1.5269 2.3903-1.5269.317 0 .6132.0429.8938.1339l-.0416 2.8449h.0104Zm.6755 2.6573c0-1.0983.2027-2.0787.6132-2.9359.4105-.8572 1.0029-1.5269 1.7719-1.993.7691-.4715 1.668-.7072 2.6865-.7072 1.4498 0 2.6293.4554 3.5491 1.3715.9145.9162 1.429 2.1538 1.5329 3.7235l.0208.7554c0 1.6984-.4625 3.0592-1.377 4.0878-.9198 1.0287-2.1513 1.5377-3.6998 1.5377-1.5485 0-2.7852-.5144-3.705-1.5323-.9249-1.0233-1.3822-2.4163-1.3822-4.1735v-.134h-.0104Zm2.8684.209c0 1.0501.1922 1.859.5768 2.4109.3845.5572.9353.8357 1.6472.8357s1.2367-.2732 1.6264-.825c.3898-.5518.5872-1.4305.5872-2.6413 0-1.034-.1974-1.8323-.5872-2.4002-.3897-.5679-.9405-.8518-1.6472-.8518s-1.2419.2839-1.6264.8465c-.3846.5625-.5768 1.4358-.5768 2.6198v.0054Zm11.8112-5.6415.0883 1.2804c.769-.9911 1.7979-1.484 3.0866-1.484 1.138 0 1.985.3429 2.541 1.034.556.6911.8418 1.7198.8522 3.0913v7.1523h-2.8684v-7.0826c0-.6269-.1299-1.0823-.3949-1.3662-.265-.284-.7067-.4233-1.3199-.4233-.8054 0-1.4134.3536-1.8187 1.0662v7.8059h-2.8683V60.7277h2.6969l.0052-.0053Zm8.8232-2.8663c0-.4447.1455-.809.4313-1.0929.2858-.284.6808-.4286 1.1744-.4286.4937 0 .8782.1446 1.1692.4286.291.2839.4365.6536.4365 1.0929s-.1455.8197-.4417 1.1037c-.2962.2839-.6859.4286-1.164.4286-.4781 0-.873-.1447-1.164-.4286-.2962-.284-.4417-.6537-.4417-1.1037Zm3.0503 13.935h-2.8788V60.7224h2.8788v11.0687Zm6.9266-2.1752c.5301 0 .9613-.15 1.2887-.45.3274-.3.5041-.7019.5144-1.1948h2.6917c-.0052.7501-.2026 1.4359-.5976 2.0627-.3897.6215-.9249 1.109-1.6004 1.4519-.6807.3429-1.429.5143-2.25.5143-1.5329 0-2.7436-.5036-3.6322-1.5108-.8886-1.0072-1.3303-2.3948-1.3303-4.1682v-.1929c0-1.7037.4417-3.0645 1.3199-4.0824.8782-1.0179 2.0889-1.5269 3.6218-1.5269 1.3406 0 2.4215.3965 3.2321 1.184.8106.7876 1.2211 1.8377 1.2367 3.1449h-2.6917c-.0155-.5733-.187-1.0447-.5144-1.4037-.3274-.3589-.769-.5411-1.3095-.5411-.6703 0-1.1743.2518-1.5121.7554-.3429.5036-.5092 1.318-.5092 2.4431v.3053c0 1.1412.1663 1.9609.504 2.4591.3378.4983.8522.7501 1.5381.7501Zm23.3467 2.1752h-2.977v-6.3862h-5.804v6.3862h-2.978V56.8917h2.978v6.038h5.804v-6.038h2.977v14.8994Zm8.735 0c-.135-.2679-.228-.5947-.286-.9912-.696.7983-1.595 1.1948-2.707 1.1948-1.049 0-1.922-.3161-2.614-.943-.691-.6268-1.039-1.4197-1.039-2.3734 0-1.1733.421-2.0733 1.268-2.7002.847-.6268 2.063-.9429 3.658-.9536h1.32v-.6322c0-.5143-.13-.9215-.384-1.2269-.255-.3054-.655-.4607-1.206-.4607-.483 0-.863.1178-1.138.3589-.275.2411-.41.5679-.41.9805h-2.869c0-.6429.192-1.2323.577-1.7787.385-.5465.925-.9751 1.626-1.2859.702-.3107 1.492-.4661 2.365-.4661 1.325 0 2.374.3429 3.149 1.0287.779.6858 1.164 1.6501 1.164 2.8931v4.8003c.005 1.0501.15 1.843.426 2.3841v.1715h-2.9Zm-2.369-2.052c.421 0 .816-.0964 1.169-.2893.358-.1928.623-.4554.795-.7822v-1.9019h-1.071c-1.434 0-2.198.5143-2.291 1.5322l-.01.1715c0 .3697.124.6697.379.9108.254.2411.597.3589 1.034.3589h-.005Zm9.79-9.0167.088 1.2804c.769-.9911 1.798-1.484 3.086-1.484 1.138 0 1.985.3429 2.541 1.034.556.6911.842 1.7198.853 3.0913v7.1523h-2.869v-7.0826c0-.6269-.135-1.0823-.395-1.3662-.265-.284-.706-.4233-1.319-.4233-.806 0-1.414.3536-1.814 1.0662v7.8059h-2.868V60.7277h2.697v-.0053Zm8.397 5.454c0-1.7252.374-3.1021 1.127-4.1253.754-1.0233 1.777-1.5323 3.082-1.5323 1.044 0 1.907.4018 2.593 1.2054v-5.6468h2.878v15.719h-2.593l-.14-1.1786c-.712.9215-1.631 1.3822-2.759 1.3822-1.263 0-2.276-.5143-3.04-1.5376-.764-1.0287-1.148-2.4538-1.148-4.2807v-.0053Zm2.868.2196c0 1.0394.177 1.8323.525 2.3895.348.5518.857.8304 1.528.8304.888 0 1.512-.3857 1.875-1.1572v-4.3771c-.358-.7715-.976-1.1573-1.855-1.1573-1.382 0-2.073 1.1573-2.073 3.4717Zm18.805-.0375c0 1.7734-.368 3.1556-1.101 4.1468-.733.9911-1.762 1.4894-3.076 1.4894-1.164 0-2.094-.4608-2.791-1.3823l-.13 1.1787h-2.582V56.072h2.868v5.6362c.66-.7983 1.533-1.1948 2.609-1.1948 1.309 0 2.338.4983 3.081 1.4894.743.9912 1.117 2.3895 1.117 4.1896v.1661h.005Zm-2.868-.2143c0-1.1197-.171-1.9341-.514-2.4484-.343-.5143-.858-.7715-1.538-.7715-.915 0-1.544.3858-1.887 1.1573v4.3717c.348.7769.988 1.168 1.907 1.168.92 0 1.533-.4715 1.824-1.4144.141-.4501.208-1.1358.208-2.0573v-.0054Zm4.292.0107c0-1.0983.203-2.0787.613-2.9359.411-.8572 1.003-1.5269 1.772-1.993.769-.4661 1.668-.7072 2.687-.7072 1.45 0 2.629.4554 3.549 1.3715.914.9162 1.429 2.1538 1.533 3.7235l.021.7554c0 1.6984-.463 3.0592-1.377 4.0878-.92 1.0287-2.157 1.5377-3.7 1.5377-1.544 0-2.785-.5144-3.705-1.5323-.925-1.0233-1.382-2.4163-1.382-4.1735v-.134h-.011Zm2.869.209c0 1.0501.192 1.859.576 2.4109.385.5572.931.8357 1.648.8357.717 0 1.236-.2732 1.626-.825.39-.5518.587-1.4305.587-2.6413 0-1.034-.197-1.8323-.587-2.4002-.39-.5679-.941-.8518-1.647-.8518-.707 0-1.242.2839-1.627.8465-.384.5625-.576 1.4358-.576 2.6198v.0054Zm8.724-.209c0-1.0983.203-2.0787.613-2.9359.411-.8572 1.003-1.5269 1.772-1.993.769-.4661 1.668-.7072 2.687-.7072 1.449 0 2.629.4554 3.549 1.3715.914.9162 1.429 2.1538 1.533 3.7235l.02.7554c0 1.6984-.462 3.0592-1.377 4.0878-.919 1.0287-2.156 1.5377-3.699 1.5377-1.544 0-2.785-.5144-3.705-1.5323-.925-1.0233-1.382-2.4163-1.382-4.1735v-.134h-.011Zm2.869.209c0 1.0501.192 1.859.576 2.4109.385.5572.93.8357 1.648.8357.717 0 1.236-.2732 1.626-.825.39-.5518.587-1.4305.587-2.6413 0-1.034-.197-1.8323-.587-2.4002-.39-.5679-.941-.8518-1.647-.8518-.707 0-1.242.2839-1.627.8465-.384.5625-.576 1.4358-.576 2.6198v.0054Zm13.073.9911-1.034 1.0662v3.3752h-2.868v-15.719h2.868v8.706l.556-.734 2.749-3.327h3.445l-3.881 4.6128 4.219 6.4559h-3.294l-2.76-4.4414v.0053Zm12.877 1.3769c0-.359-.172-.6483-.52-.8518-.348-.2036-.904-.3965-1.673-.5572-2.551-.5519-3.83-1.6716-3.83-3.3538 0-.9805.395-1.8002 1.185-2.4592.79-.6589 1.824-.9857 3.102-.9857 1.362 0 2.453.3321 3.269.9911.816.659 1.226 1.5215 1.226 2.577h-2.868c0-.4233-.13-.7715-.395-1.0501-.265-.2786-.681-.4125-1.242-.4125-.483 0-.858.1125-1.123.3375-.265.225-.394.5143-.394.8572 0 .3268.15.5893.452.7929.301.2036.81.375 1.522.5197.712.1447 1.315.3107 1.808.4983 1.518.5732 2.271 1.5644 2.271 2.9787 0 1.0073-.421 1.827-1.263 2.4484-.841.6269-1.927.9376-3.252.9376-.899 0-1.7-.1661-2.396-.4982-.696-.3322-1.247-.7822-1.642-1.3609-.395-.5786-.597-1.2-.597-1.8697h2.717c.026.525.213.9268.567 1.2054.348.2786.821.4179 1.408.4179.551 0 .966-.1072 1.247-.3215.28-.2143.421-.4982.421-.8464v.0053Z"/>
  </g>
</svg>