<svg xmlns="http://www.w3.org/2000/svg" width="701" height="232" viewBox="0 0 701 232" version="1.1"><path d="M 428.500 8.648 C 397.186 10.787, 381.818 16.026, 370.095 28.558 C 362.925 36.222, 360 43.160, 360 52.500 C 360 62.444, 362.982 69.166, 370.909 77.089 C 380.144 86.321, 386.124 88.875, 416.399 96.523 C 452.662 105.683, 459.924 108.824, 461.508 116.037 C 462.800 121.921, 457.094 129.430, 449.275 132.133 C 447.199 132.851, 441.441 133.452, 436.479 133.469 C 428.272 133.497, 426.857 133.204, 420.792 130.219 C 413.052 126.408, 408.767 121.365, 406.996 113.985 C 406.359 111.326, 405.307 108.948, 404.659 108.699 C 404.012 108.451, 392.686 108.913, 379.491 109.727 C 362.859 110.753, 355.078 111.608, 354.125 112.514 C 352.962 113.620, 353.091 114.949, 354.964 121.160 C 363.789 150.420, 387.383 162.984, 433.526 162.996 C 459.922 163.003, 471.575 160.896, 486.995 153.329 C 517.045 138.583, 525.103 105.507, 503.719 84.685 C 493.526 74.759, 485.171 71.571, 446.838 62.982 C 432.139 59.688, 419.022 56.579, 417.688 56.072 C 413.739 54.570, 410.751 50.019, 411.415 46.516 C 413.201 37.084, 431.298 33.088, 444.963 39.110 C 451.044 41.789, 452.902 43.633, 455.591 49.658 C 456.857 52.495, 458.299 55.067, 458.795 55.373 C 459.680 55.920, 487.361 54.675, 501.873 53.436 L 509.245 52.806 508.621 48.153 C 507.049 36.441, 496.769 23.115, 484.852 17.339 C 472.242 11.227, 447.224 7.369, 428.500 8.648 M 18.467 12.233 C 18.200 12.930, 18.099 46.350, 18.241 86.500 L 18.500 159.500 44 159.500 L 69.500 159.500 69.766 132.750 L 70.033 106 97.997 106 L 125.962 106 126.621 108.627 C 126.984 110.071, 127.076 121.434, 126.827 133.877 C 126.578 146.319, 126.548 157.287, 126.760 158.250 C 127.116 159.860, 129.166 160, 152.466 160 C 174.632 160, 177.862 159.803, 178.393 158.418 C 179.497 155.540, 179.084 15.025, 177.965 12.934 C 176.985 11.103, 175.630 11, 152.515 11 C 131.280 11, 127.984 11.206, 127.213 12.583 C 126.726 13.454, 126.538 24.398, 126.796 36.902 C 127.132 53.218, 126.932 60.258, 126.088 61.835 C 124.916 64.025, 124.831 64.031, 97.706 63.766 L 70.500 63.500 70 37.500 L 69.500 11.500 44.225 11.233 C 24.546 11.025, 18.843 11.246, 18.467 12.233 M 185.607 12.582 C 185.273 13.452, 185 46.212, 185 85.382 C 185 139.440, 185.289 156.889, 186.200 157.800 C 187.957 159.557, 240.552 159.510, 241.691 157.750 C 242.136 157.063, 242.725 145.700, 243 132.500 L 243.500 108.500 263.076 108.500 C 282.599 108.500, 282.663 108.507, 286.670 111.161 C 292.554 115.058, 293.835 118.763, 296.211 138.760 C 297.370 148.517, 298.752 157.063, 299.282 157.750 C 300.012 158.697, 307.001 159, 328.122 159 C 349.756 159, 356.001 158.720, 356.003 157.750 C 356.012 153.751, 345.485 104.917, 343.987 102.004 C 341.343 96.868, 337.022 93.192, 330.519 90.549 L 324.765 88.211 328.133 87.483 C 336.313 85.716, 344.269 79.091, 347.923 71 C 350.772 64.694, 350.846 47.771, 348.060 39.673 C 343.409 26.156, 332.535 16.108, 318.500 12.359 C 314.580 11.312, 299.755 11.021, 249.857 11.012 C 192.738 11.001, 186.152 11.162, 185.607 12.582 M 567.655 12.829 C 566.745 13.835, 566 14.920, 566 15.241 C 566 15.562, 553.126 46.126, 537.390 83.162 C 521.655 120.198, 507.943 152.622, 506.918 155.216 L 505.056 159.932 529.484 160.216 C 542.919 160.372, 554.910 160.263, 556.131 159.973 C 557.928 159.546, 559.031 157.448, 561.925 148.950 C 563.891 143.178, 565.864 137.902, 566.309 137.227 C 566.917 136.304, 574.301 136, 596.080 136 L 625.043 136 626.022 138.250 C 626.560 139.488, 628.478 144.775, 630.283 150 L 633.565 159.500 660.783 159.766 C 675.752 159.912, 688 159.828, 688 159.579 C 688 159.330, 682.870 147.061, 676.600 132.313 C 670.330 117.566, 656.339 84.576, 645.509 59.003 C 634.679 33.430, 625.297 12.174, 624.659 11.768 C 624.022 11.363, 611.307 11.024, 596.405 11.015 C 571.414 11.001, 569.181 11.142, 567.655 12.829 M 242.734 45.599 C 242.330 46.003, 242 52.333, 242 59.667 L 242 73 263.599 73 C 287.725 73, 290.325 72.446, 293.984 66.526 C 297.848 60.273, 295.729 51.492, 289.345 47.304 C 286.952 45.735, 283.791 45.459, 265.032 45.182 C 253.172 45.008, 243.138 45.195, 242.734 45.599 M 586.635 77.113 C 581.760 91.408, 577.983 103.316, 578.242 103.575 C 578.501 103.834, 586.798 103.923, 596.679 103.773 L 614.646 103.500 605.731 78 C 600.828 63.975, 596.520 52.190, 596.158 51.811 C 595.796 51.432, 591.511 62.818, 586.635 77.113 M 18 201.500 L 18 225 36 225 L 54 225 54 220.500 L 54 216 41 216 L 28 216 28 210.500 L 28 205 39.500 205 L 51 205 51 200.500 L 51 196 39.500 196 L 28 196 28 191.500 L 28 187 40.500 187 L 53 187 53 182.500 L 53 178 35.500 178 L 18 178 18 201.500 M 61 201.500 L 61 225 66 225 L 71 225 71 201.500 L 71 178 66 178 L 61 178 61 201.500 M 276 182.500 L 276 187 281 187 L 286 187 286 182.500 L 286 178 281 178 L 276 178 276 182.500 M 348 201.500 L 348 225 353 225 L 358 225 358 215 L 358 205 367 205 L 376 205 376 215 L 376 225 381 225 L 386 225 386 201.500 L 386 178 381 178 L 376 178 376 187 L 376 196 367 196 L 358 196 358 187 L 358 178 353 178 L 348 178 348 201.500 M 492 185.500 C 492 189.625, 491.663 192.986, 491.250 192.968 C 490.837 192.951, 489.626 192.276, 488.559 191.468 C 487.487 190.658, 484.498 190, 481.886 190 C 473.358 190, 468 196.753, 468 207.500 C 468 214.363, 469.765 218.783, 473.893 222.257 C 478.383 226.035, 483.033 226.687, 487.990 224.235 C 491.096 222.698, 492 222.561, 492 223.625 C 492 224.608, 493.425 225, 497 225 L 502 225 502 201.500 L 502 178 497 178 L 492 178 492 185.500 M 509 201.500 L 509 225 513.500 225 C 517.355 225, 518 224.709, 518 222.970 C 518 220.984, 518.067 220.990, 521.084 223.220 C 525.118 226.202, 531.759 226.300, 535.677 223.435 C 544.718 216.824, 544.658 197.422, 535.580 191.886 C 531.802 189.582, 524.288 189.410, 521.223 191.557 L 519 193.113 519 185.557 L 519 178 514 178 L 509 178 509 201.500 M 627 201.500 L 627 225 632 225 L 637 225 637.022 219.750 C 637.037 216.331, 637.649 213.715, 638.777 212.249 L 640.510 209.998 644.524 217.249 L 648.539 224.500 653.769 224.802 C 656.646 224.969, 658.992 224.744, 658.983 224.302 C 658.974 223.861, 656.322 219.014, 653.091 213.531 L 647.215 203.563 652.607 197.420 C 655.573 194.042, 658 190.991, 658 190.639 C 658 190.288, 655.562 190, 652.583 190 C 647.242 190, 647.094 190.081, 642.097 195.750 L 637.028 201.500 637.014 189.750 L 637 178 632 178 L 627 178 627 201.500 M 155.250 181.566 C 151.790 183.640, 151 184.660, 151 187.057 C 151 189.333, 150.547 190, 149 190 C 147.296 190, 147 190.667, 147 194.500 C 147 198.333, 147.296 199, 149 199 C 150.866 199, 151 199.667, 151 208.953 C 151 220.827, 152.030 223.629, 156.933 225.098 C 161 226.317, 167.563 225.118, 167.400 223.186 C 167.345 222.534, 167.233 220.875, 167.150 219.500 C 167.025 217.422, 166.493 217, 164 217 L 161 217 161 208 L 161 199 164 199 C 166.889 199, 167 198.833, 167 194.500 C 167 190.167, 166.889 190, 164 190 C 161.030 190, 161 189.944, 161 184.500 C 161 181.475, 160.662 179.004, 160.250 179.009 C 159.838 179.015, 157.588 180.165, 155.250 181.566 M 83.952 192.253 C 78.692 195.798, 76.500 200.430, 76.500 208 C 76.500 215.711, 78.775 220.381, 84.027 223.448 C 88.815 226.244, 97.875 226.230, 101.637 223.422 C 105.078 220.852, 108.573 216.240, 107.723 215.389 C 106.543 214.210, 98.513 213.125, 98.161 214.098 C 97.428 216.124, 94.746 218, 92.584 218 C 90.235 218, 87.766 215.803, 86.683 212.750 C 86.116 211.149, 87.038 211, 97.512 211 L 108.962 211 108.371 206.250 C 107.038 195.532, 101.635 190, 92.500 190 C 88.757 190, 86.357 190.633, 83.952 192.253 M 120.984 191.854 C 113.954 195.595, 110.711 207.585, 114.364 216.329 C 119.768 229.263, 141.305 228.585, 144.620 215.376 C 145.378 212.356, 145.457 212.425, 140.306 211.636 C 136.434 211.044, 136.011 211.206, 134.792 213.747 C 133.682 216.065, 132.848 216.500, 129.516 216.500 C 126.299 216.500, 125.322 216.032, 124.294 214 C 122.520 210.492, 122.685 202.895, 124.595 200.168 C 126.764 197.071, 133.028 197.425, 134.477 200.726 C 135.327 202.664, 135.973 202.873, 139.477 202.348 C 141.689 202.016, 143.876 201.404, 144.335 200.987 C 145.699 199.750, 142.150 194.062, 138.701 191.960 C 134.469 189.379, 125.733 189.327, 120.984 191.854 M 172 207.500 L 172 225 177 225 L 182 225 182 214.565 C 182 208.826, 182.461 202.918, 183.024 201.437 C 183.955 198.989, 184.411 198.792, 188.013 199.275 C 191.914 199.798, 191.997 199.743, 193.171 195.825 C 194.160 192.522, 194.119 191.688, 192.932 190.937 C 190.696 189.522, 185.670 189.843, 183.223 191.557 C 181.211 192.966, 181 192.966, 181 191.557 C 181 190.378, 179.906 190, 176.500 190 L 172 190 172 207.500 M 203.848 192.018 C 193.960 197.242, 192.145 213.530, 200.621 220.972 C 208.373 227.778, 220.903 227.024, 226.908 219.389 C 233.898 210.504, 230.914 196.627, 220.901 191.449 C 216.929 189.395, 208.266 189.684, 203.848 192.018 M 237 207.500 L 237 225 241.351 225 L 245.703 225 246.273 213.415 C 246.901 200.670, 248.058 198, 252.955 198 C 257.503 198, 258 199.448, 258 212.700 L 258 225 263 225 L 268 225 268 211.450 C 268 196.582, 267.108 193.282, 262.528 191.195 C 258.337 189.285, 251.640 189.709, 248.635 192.073 L 246 194.145 246 192.073 C 246 190.283, 245.386 190, 241.500 190 L 237 190 237 207.500 M 276 207.500 L 276 225 281 225 L 286 225 286 207.500 L 286 190 281 190 L 276 190 276 207.500 M 301.500 190.959 C 293.668 194.220, 289.703 206.566, 293.538 215.746 C 295.659 220.822, 297.537 222.658, 302.581 224.584 C 311.033 227.812, 321.168 223.693, 323.875 215.929 C 325.034 212.604, 324.985 212.561, 319 211.586 C 315.888 211.079, 315.311 211.347, 313.797 214.008 C 312.504 216.279, 311.376 217, 309.118 217 C 307.482 217, 305.453 216.311, 304.611 215.468 C 300.626 211.483, 301.918 199.561, 306.458 198.421 C 310.105 197.506, 312.399 198.281, 313.500 200.799 C 314.381 202.816, 314.974 203.010, 318.500 202.441 C 323.757 201.591, 324.474 200.759, 322.852 197.386 C 320.589 192.681, 315.538 189.991, 309.102 190.063 C 306.021 190.098, 302.600 190.501, 301.500 190.959 M 398.763 191.565 C 396.120 192.999, 392.336 198.669, 393.347 199.680 C 393.619 199.952, 395.565 200.569, 397.671 201.050 C 400.984 201.808, 401.719 201.640, 403.122 199.807 C 405.807 196.299, 414.162 197.529, 412.744 201.224 C 412.458 201.971, 408.808 203.387, 404.633 204.371 C 398.647 205.782, 396.510 206.794, 394.521 209.157 C 390.195 214.299, 391.773 221.118, 398.014 224.248 C 402.482 226.489, 405.675 226.460, 410.234 224.136 C 413.196 222.625, 413.990 222.530, 414.414 223.636 C 414.761 224.541, 416.650 225, 420.028 225 C 423.865 225, 424.919 224.692, 424.309 223.750 C 423.864 223.063, 423.263 216.489, 422.972 209.143 L 422.445 195.786 419.207 192.893 C 416.255 190.256, 415.328 190.004, 408.734 190.040 C 404.302 190.065, 400.440 190.655, 398.763 191.565 M 430.667 190.667 C 430.300 191.033, 430 198.908, 430 208.167 L 430 225 434.895 225 L 439.789 225 440.146 212.918 C 440.538 199.635, 441.306 198, 447.156 198 C 451.231 198, 452 200.449, 452 213.434 L 452 225 457.074 225 L 462.148 225 461.824 210.415 L 461.500 195.831 458.234 192.915 C 454.132 189.253, 446.781 188.811, 442.747 191.984 C 440.232 193.963, 440.224 193.963, 439.706 191.984 C 439.300 190.430, 438.336 190, 435.260 190 C 433.100 190, 431.033 190.300, 430.667 190.667 M 556.500 191.412 C 550.196 194.214, 547 199.849, 547 208.164 C 547 214.617, 549.374 219.560, 553.906 222.545 C 561.707 227.683, 571.824 226.381, 577.904 219.456 C 585.280 211.056, 582.229 195.501, 572.400 191.394 C 568.225 189.649, 560.446 189.658, 556.500 191.412 M 594.984 191.852 C 585.084 197.113, 582.902 212.137, 590.879 220.114 C 601.507 230.743, 618.810 225.446, 621.421 210.765 C 622.756 203.257, 618.644 194.987, 611.800 191.411 C 607.936 189.392, 599.180 189.622, 594.984 191.852 M 667.500 191.107 C 663.893 193.187, 662.045 196.382, 662.022 200.576 C 661.989 206.656, 665.815 209.733, 676.296 212.055 C 679.483 212.761, 682.334 213.732, 682.632 214.213 C 683.724 215.980, 680.666 218, 676.901 218 C 673.868 218, 672.688 217.454, 671.368 215.438 C 669.867 213.148, 669.256 212.948, 665.595 213.554 C 659.986 214.481, 659.793 214.699, 661.552 218.101 C 665.860 226.431, 680.913 228.528, 688.511 221.857 C 692.290 218.538, 693.557 214.594, 692.086 210.726 C 690.755 207.226, 687.253 205.079, 679.260 202.862 C 671.747 200.779, 669.726 199.417, 672.008 197.974 C 674.517 196.388, 678.891 196.891, 681.010 199.010 C 682.628 200.628, 683.798 200.896, 687.010 200.382 C 691.951 199.592, 692.224 197.547, 687.939 193.442 C 685.171 190.790, 684.143 190.483, 677.189 190.231 C 672.683 190.069, 668.672 190.431, 667.500 191.107 M 87.843 200.444 C 87.201 201.855, 86.922 203.256, 87.224 203.558 C 87.526 203.859, 90.287 203.970, 93.359 203.803 L 98.944 203.500 97.699 201 C 96.763 199.120, 95.531 198.423, 92.733 198.190 C 89.561 197.926, 88.839 198.258, 87.843 200.444 M 208.235 199.996 C 205.061 202.953, 204.414 208.135, 206.647 212.707 C 208.301 216.092, 208.951 216.533, 212.691 216.805 C 216.330 217.069, 217.121 216.746, 218.691 214.348 C 224.510 205.467, 215.555 193.176, 208.235 199.996 M 479.872 199.654 C 479.023 200.678, 478.500 203.758, 478.500 207.742 C 478.500 213.298, 478.822 214.438, 480.861 216.088 C 483.947 218.588, 485.307 218.500, 488.694 215.585 C 491.157 213.465, 491.494 212.492, 491.448 207.632 C 491.411 203.699, 490.859 201.502, 489.543 200.048 C 487.276 197.542, 481.809 197.320, 479.872 199.654 M 520.557 200.223 C 519.621 201.558, 519 204.569, 519 207.768 C 519 212.086, 519.463 213.554, 521.455 215.545 C 524.494 218.585, 526.160 218.627, 529.501 215.750 C 531.690 213.865, 532.120 212.645, 532.153 208.221 C 532.205 201.212, 530.126 198, 525.534 198 C 523.133 198, 521.649 198.662, 520.557 200.223 M 559.455 200.455 C 557.590 202.319, 557 203.970, 557 207.320 C 557 213.247, 559.907 217, 564.500 217 C 569.093 217, 572 213.247, 572 207.320 C 572 202.127, 568.679 198, 564.500 198 C 563.075 198, 560.805 199.105, 559.455 200.455 M 599.825 199.038 C 595.824 201.373, 595.115 211.260, 598.667 215.184 C 602.312 219.213, 610.785 216.203, 611.151 210.750 C 611.814 200.853, 606.367 195.221, 599.825 199.038 M 408.096 210.406 C 402.958 211.682, 400.945 214.024, 402.930 216.416 C 406.113 220.251, 413.496 216.765, 412.825 211.745 C 412.510 209.391, 412.358 209.348, 408.096 210.406" stroke="none" fill="#fffcfc" fill-rule="evenodd"/><path d="" stroke="none" fill="#fcfcfc" fill-rule="evenodd"/></svg>