<?xml version="1.0" encoding="UTF-8"?><svg id="Layer_1" xmlns="http://www.w3.org/2000/svg" viewBox="0 0 57.92 68.94"><defs><style>.cls-1{fill:#e55a61;}</style></defs><path class="cls-1" d="M32.74,25.96c-6.68-7.79-18.45-8.7-26.24-2.02-7.79,6.68-8.7,18.45-2.02,26.24,5.77,6.73,15.33,8.32,22.85,4.33,.12,.67,.4,1.33,.87,1.88l9.57,11.17c1.42,1.66,3.91,1.85,5.57,.43l1.05-.9c1.66-1.42,1.85-3.91,.43-5.57l-9.57-11.17c-.48-.56-1.08-.93-1.73-1.15,5.09-6.82,4.98-16.51-.78-23.24Zm-5.44,22.26c-5.59,4.79-14.05,4.14-18.84-1.45s-4.14-14.05,1.45-18.84,14.05-4.14,18.84,1.45c4.79,5.6,4.14,14.05-1.45,18.84Z"/><g><path class="cls-1" d="M6.35,13.94c3.19,0,6.39,.03,9.58,0,1.88-.02,3.1-1.28,3.11-3.1,0-1.5,0-2.99,0-4.49,0-1.54-.02-3.07,0-4.61,.01-.73-.23-1.3-.92-1.6-.73-.31-1.34-.03-1.88,.49-3.66,3.55-7.32,7.1-10.99,10.65-.51,.49-.74,1.05-.47,1.72,.27,.68,.85,.95,1.56,.95Z"/><path class="cls-1" d="M11.87,59.85v.87c0,2.42,1.96,4.38,4.38,4.38h17.43l-4.5-5.25H11.87Z"/><path class="cls-1" d="M53.54,7.41h-.71V55.47c0,2.42-1.96,4.38-4.38,4.38h-3.11l.6,.7c.95,1.1,1.41,2.51,1.3,3.96-.02,.2-.04,.39-.08,.58h6.37c2.42,0,4.38-1.96,4.38-4.38V11.79c0-2.42-1.96-4.38-4.38-4.38Z"/><path class="cls-1" d="M23.37,57.6h3.88l-.19-.23c-.21-.25-.4-.52-.57-.8-1.01,.43-2.05,.77-3.12,1.03Z"/><path class="cls-1" d="M15.01,33.34h14.47c-.46-1.06-1.08-2.06-1.87-2.98-1.03-1.2-2.28-2.15-3.66-2.85H15.01c-.38,0-.73-.13-1.01-.35-1.12,.47-2.17,1.11-3.11,1.91-2.4,2.06-3.86,4.93-4.1,8.1-.24,3.16,.76,6.23,2.81,8.63,2.25,2.63,5.54,4.14,9.02,4.14,2.83,0,5.57-1.01,7.71-2.85,3.11-2.66,4.5-6.6,4.06-10.39H15.01c-.93,0-1.68-.75-1.68-1.68s.75-1.68,1.68-1.68Zm0,9.19h10.87c.93,0,1.68,.75,1.68,1.68s-.75,1.68-1.68,1.68H15.01c-.93,0-1.68-.75-1.68-1.68s.75-1.68,1.68-1.68Z"/><path class="cls-1" d="M46.21,0H20.96V11.61c0,2.42-1.96,4.38-4.38,4.38H4.53v7.81c.32-.31,.64-.62,.98-.91,3.64-3.12,8.28-4.83,13.07-4.83,5.51,0,10.74,2.24,14.52,6.17h7c.93,0,1.68,.75,1.68,1.68s-.75,1.68-1.68,1.68h-4.41c1.12,1.82,1.92,3.79,2.41,5.83h2c.93,0,1.68,.75,1.68,1.68s-.75,1.68-1.68,1.68h-1.49c.28,4.14-.69,8.36-2.95,12,.26,.21,.49,.43,.71,.68l7.04,8.22h2.78c2.42,0,4.38-1.96,4.38-4.38V4.38c0-2.42-1.96-4.38-4.38-4.38Zm-10.2,6.4h-4.75v2.33h4.1v1.66h-4.1v4.18h-1.98V4.74h6.74v1.66Zm4.6,8.17h-1.98V4.74h1.98V14.57Z"/><path class="cls-1" d="M4.53,52.43v.79c0,2.42,1.96,4.38,4.38,4.38h4.93c-3.5-.85-6.72-2.62-9.31-5.17Z"/></g></svg>