<?xml version="1.0" encoding="UTF-8"?><svg id="Layer_1" xmlns="http://www.w3.org/2000/svg" viewBox="0 0 75.47 74.05"><defs><style>.cls-1{fill:#3b56a6;}</style></defs><g><path class="cls-1" d="M20.41,30.48h-.87C8.75,30.48,0,39.22,0,50.01v12.56c0,1.96,1.3,3.6,3.08,4.15-.35-.91-.54-1.89-.54-2.91v-12.73c0-4.52,3.68-8.2,8.2-8.2H29.46c4.52,0,8.2,3.68,8.2,8.2v12.73c0,.99-.19,1.94-.51,2.82,1.63-.63,2.8-2.21,2.8-4.07v-12.56c0-10.79-8.75-19.54-19.54-19.54Z"/><rect class="cls-1" x="2.89" y="71.2" width="34.41" height="2.85" rx="1.43" ry="1.43"/><path class="cls-1" d="M29.46,45.89H10.73c-2.87,0-5.2,2.33-5.2,5.2v12.73c0,2.87,2.33,5.2,5.2,5.2H29.46c2.87,0,5.2-2.33,5.2-5.2v-12.73c0-2.87-2.33-5.2-5.2-5.2Z"/><circle class="cls-1" cx="20.09" cy="14" r="14"/></g><path class="cls-1" d="M72.79,7.96h-29.63c-1.48,0-2.68,1.2-2.68,2.68v25.12s-.01,.03-.01,.05l-.69,4.83c-.07,.49,.11,.98,.47,1.32,.28,.25,.64,.39,1.01,.39,.12,0,.23-.01,.35-.04l7.15-1.69c.09-.02,.16-.06,.25-.1h23.78c1.48,0,2.68-1.2,2.68-2.68V10.64c0-1.48-1.2-2.68-2.68-2.68Zm-2.82,26.48h-24.54c-.55,0-1-.45-1-1V12.95c0-.55,.45-1,1-1s1,.45,1,1v19.48h5.08v-13.14c0-.55,.45-1,1-1s1,.45,1,1v13.14h5.3s-.01-.05-.01-.08V15.94c0-.68,.45-1.23,1-1.23s1,.55,1,1.23v16.42s-.01,.05-.01,.08h5.3v-13.85c0-.58,.45-1.05,1-1.05s1,.47,1,1.05v13.85h1.87c.55,0,1,.45,1,1s-.45,1-1,1Z"/></svg>