<svg xmlns="http://www.w3.org/2000/svg" viewBox="0 0 144 144">
  <defs/>
  <ellipse cx="118.34" cy="35.39" class="cls-1" rx="17.98" ry="17.91"/>
  <path d="M118.9 56.54h-1.13c-13.87 0-25.1 11.2-25.1 25v3.21c5.07 4.56 8.29 11.12 8.3 18.45h37.41c3.1 0 5.61-2.51 5.61-5.59V81.54c0-13.81-11.24-25-25.1-25Z" class="cls-1"/>
  <ellipse cx="25.66" cy="35.39" class="cls-1" rx="17.98" ry="17.91"/>
  <path d="M25.1 56.54h1.13c13.87 0 25.1 11.2 25.1 25v3.21c-5.07 4.56-8.29 11.12-8.3 18.45H5.61c-3.1 0-5.61-2.51-5.61-5.59V81.54c0-13.81 11.24-25 25.1-25Z" class="cls-1"/>
  <ellipse cx="72.08" cy="58.71" class="cls-1" rx="17.98" ry="17.91"/>
  <path d="M92 126.52H52.15c-3.17 0-5.74-2.55-5.74-5.72v-15.39c0-14.11 11.49-25.56 25.66-25.56s25.66 11.45 25.66 25.56v15.39c0 3.16-2.56 5.72-5.74 5.72Z" class="cls-1"/>
</svg>
