<?xml version="1.0" encoding="UTF-8"?><svg id="Layer_1" xmlns="http://www.w3.org/2000/svg" viewBox="0 0 92.09 70.01"><defs><style>.cls-1{fill:#1a699e;}</style></defs><g><circle class="cls-1" cx="75.67" cy="11.5" r="11.5"/><path class="cls-1" d="M76.03,25.08h-.72c-8.87,0-16.05,7.19-16.05,16.05v2.06c3.24,2.93,5.3,7.14,5.31,11.85h23.92c1.98,0,3.59-1.61,3.59-3.59v-10.32c0-8.87-7.19-16.05-16.05-16.05Z"/></g><g><circle class="cls-1" cx="16.41" cy="11.5" r="11.5"/><path class="cls-1" d="M16.05,25.08h.72c8.87,0,16.05,7.19,16.05,16.05v2.06c-3.24,2.93-5.3,7.14-5.31,11.85H3.59c-1.98,0-3.59-1.61-3.59-3.59v-10.32c0-8.87,7.19-16.05,16.05-16.05Z"/></g><g><circle class="cls-1" cx="46.09" cy="26.47" r="11.5"/><path class="cls-1" d="M58.83,70.01h-25.48c-2.03,0-3.67-1.64-3.67-3.67v-9.88c0-9.06,7.35-16.41,16.41-16.41h0c9.06,0,16.41,7.35,16.41,16.41v9.88c0,2.03-1.64,3.67-3.67,3.67Z"/></g></svg>