<svg xmlns="http://www.w3.org/2000/svg" viewBox="0 0 144 144">
  <defs/>
  <path d="M44 61.47h-1.41c-17.44 0-31.58 14.07-31.58 31.43v20.22c0 3.15 2.1 5.79 4.98 6.68a12.84 12.84 0 0 1-.87-4.68V94.63c0-7.27 5.95-13.2 13.25-13.2h30.26c7.31 0 13.25 5.92 13.25 13.2v20.49c0 1.59-.31 3.12-.82 4.54 2.63-1.01 4.53-3.56 4.53-6.55V92.89c0-17.37-14.14-31.45-31.58-31.45v.03ZM17.99 127h50.99a2.3 2.3 0 0 1 2.31 2.29c0 1.27-1.03 2.29-2.31 2.29H17.99a2.3 2.3 0 0 1-2.31-2.29c0-1.27 1.03-2.29 2.31-2.29Z" class="cls-1"/>
  <path d="M58.63 86.27H28.36c-4.64 0-8.4 3.75-8.4 8.37v20.49c0 4.62 3.77 8.37 8.4 8.37h30.27c4.64 0 8.4-3.75 8.4-8.37V94.64c0-4.62-3.77-8.37-8.4-8.37Z" class="cls-1"/>
  <ellipse cx="43.48" cy="34.94" class="cls-1" rx="22.63" ry="22.53"/>
  <path d="M128.66 25.22H80.77c-2.39 0-4.33 1.93-4.33 4.31v40.43s-.02.05-.02.08l-1.12 7.77c-.11.79.18 1.58.76 2.12.45.4 1.03.63 1.63.63.19 0 .37-.02.57-.06l11.56-2.72c.15-.03.26-.1.4-.16h38.43c2.39 0 4.33-1.93 4.33-4.31V29.53c0-2.38-1.94-4.31-4.33-4.31Zm-4.56 42.62H84.44c-.89 0-1.62-.72-1.62-1.61V33.25c0-.89.73-1.61 1.62-1.61s1.62.72 1.62 1.61V64.6h8.21V43.45c0-.89.73-1.61 1.62-1.61s1.62.72 1.62 1.61V64.6h8.57s-.02-.08-.02-.13V38.06c0-1.09.73-1.98 1.62-1.98s1.62.89 1.62 1.98v26.43s-.02.08-.02.13h8.57V42.33c0-.93.73-1.69 1.62-1.69s1.62.76 1.62 1.69v22.29h3.02c.89 0 1.62.72 1.62 1.61s-.73 1.61-1.62 1.61h.02Z" class="cls-1"/>
</svg>
