<?xml version="1.0" encoding="UTF-8"?><svg id="Layer_1" xmlns="http://www.w3.org/2000/svg" viewBox="0 0 66.25 86.48"><defs><style>.cls-1{fill:#1b7288;}</style></defs><path class="cls-1" d="M50.68,0c-8.58,0-15.57,6.98-15.57,15.57,0,3.58,1.23,7.04,3.48,9.81l-1.73,3.58c-.16,.33-.13,.71,.08,1.01,.21,.3,.56,.46,.92,.42l6.43-.63c2.02,.91,4.16,1.37,6.39,1.37,8.58,0,15.57-6.98,15.57-15.57S59.27,0,50.68,0Zm-7.7,20.7c0-.55,.45-1,1-1h13.4c.55,0,1,.45,1,1s-.45,1-1,1h-13.4c-.55,0-1-.45-1-1Zm0-5.13c0-.55,.45-1,1-1h13.4c.55,0,1,.45,1,1s-.45,1-1,1h-13.4c-.55,0-1-.45-1-1Zm14.4-4.13h-13.4c-.55,0-1-.45-1-1s.45-1,1-1h13.4c.55,0,1,.45,1,1s-.45,1-1,1Z"/><path class="cls-1" d="M19.97,12.39c-6.85,0-12.54,4.92-13.75,11.42,.15-.04,.31-.07,.48-.07,.93,.01,1.7,.78,1.71,1.71,.01,.73,.01,1.46,0,2.19,0,.46-.2,.88-.51,1.19,1.15,2.73,3.23,4.14,6.2,4.32,.3-.96,1.19-1.69,2.24-1.7,1.01-.01,2.02-.01,3.03,0,1.29,.02,2.34,1.09,2.36,2.37,.02,1.27-.98,2.34-2.27,2.41-.53,.03-1.07,0-1.61,0-.54,0-1.07,.02-1.61,0-1.04-.05-1.88-.77-2.16-1.71-3.27-.02-6.3-2.13-7.47-5.18-.12,0-.23-.02-.34-.05,1.33,6.34,6.96,11.11,13.7,11.11,7.73,0,14-6.27,14-14s-6.27-14-14-14Z"/><path class="cls-1" d="M20.41,42.91h-.87C8.75,42.91,0,51.66,0,62.45v12.56c0,1.96,1.3,3.6,3.08,4.15-.35-.91-.54-1.89-.54-2.91v-12.73c0-4.52,3.68-8.2,8.2-8.2H29.46c4.52,0,8.2,3.68,8.2,8.2v12.73c0,.99-.19,1.94-.51,2.82,1.63-.63,2.8-2.21,2.8-4.07v-12.56c0-10.79-8.75-19.54-19.54-19.54Z"/><rect class="cls-1" x="2.89" y="83.63" width="34.41" height="2.85" rx="1.43" ry="1.43"/><g><path class="cls-1" d="M29.46,58.32H10.73c-2.87,0-5.2,2.33-5.2,5.2v12.73c0,2.87,2.33,5.2,5.2,5.2H29.46c2.87,0,5.2-2.33,5.2-5.2v-12.73c0-2.87-2.33-5.2-5.2-5.2Zm-4.38,12.49c-.35,.09-.71,.18-1.06,.26-.07,.02-.1,.05-.13,.11-.06,.17-.14,.33-.2,.49-.01,.04-.01,.09,0,.13,.16,.27,.32,.54,.48,.8,.12,.2,.11,.32-.06,.48-.26,.26-.52,.52-.78,.78-.16,.16-.29,.18-.49,.06-.26-.15-.52-.31-.77-.47-.05-.03-.1-.04-.16-.01-.17,.08-.34,.15-.52,.22-.07,.03-.09,.06-.11,.13-.08,.36-.17,.71-.26,1.06-.05,.2-.15,.28-.36,.28-.38,0-.75,0-1.13,0-.21,0-.31-.08-.37-.28-.09-.35-.18-.71-.26-1.06-.02-.07-.05-.1-.11-.13-.17-.06-.34-.14-.5-.21-.06-.03-.1-.02-.16,.01-.25,.16-.51,.31-.77,.46-.19,.11-.32,.1-.47-.05-.26-.26-.53-.53-.79-.79-.15-.15-.17-.28-.06-.47,.15-.26,.31-.52,.47-.77,.03-.05,.03-.09,0-.15-.08-.17-.15-.34-.22-.52-.02-.06-.06-.08-.11-.1-.34-.08-.67-.17-1.01-.24-.16-.03-.28-.1-.35-.25v-1.4c.06-.14,.17-.21,.32-.24,.34-.08,.68-.17,1.03-.25,.07-.02,.1-.04,.13-.11,.05-.14,.11-.29,.17-.43,.03-.06,.02-.1,0-.16-.18-.29-.35-.58-.52-.87-.11-.19-.1-.32,.06-.48,.26-.26,.52-.52,.78-.78,.17-.17,.29-.18,.49-.06,.28,.17,.56,.33,.84,.5,.05,.03,.09,.03,.15,0,.18-.08,.36-.16,.55-.23,.06-.02,.08-.06,.1-.11,.08-.34,.17-.67,.24-1.01,.03-.16,.1-.28,.25-.35h1.4c.15,.07,.21,.19,.25,.35,.08,.34,.16,.67,.24,1.01,.01,.06,.04,.09,.1,.11,.17,.07,.34,.14,.51,.21,.04,.02,.1,.01,.14,0,.28-.16,.55-.33,.82-.49,.19-.11,.31-.1,.47,.06,.26,.26,.52,.52,.78,.78,.16,.16,.18,.28,.06,.48-.16,.26-.32,.53-.48,.79-.04,.06-.04,.11-.01,.17,.07,.16,.14,.32,.21,.49,.02,.07,.06,.09,.13,.11,.36,.08,.71,.17,1.06,.26,.2,.05,.28,.15,.28,.36,0,.38,0,.75,0,1.13,0,.21-.08,.31-.28,.37Z"/><path class="cls-1" d="M20.09,67.72c-1.18,0-2.16,.98-2.16,2.16,0,1.18,.98,2.16,2.16,2.16,1.18,0,2.16-.98,2.16-2.16,0-1.18-.98-2.16-2.16-2.16Z"/></g></svg>