<?xml version="1.0" encoding="UTF-8"?><svg id="Layer_1" xmlns="http://www.w3.org/2000/svg" viewBox="0 0 85.79 84.54"><defs><style>.cls-1{fill:#cf9738;}.cls-2{fill:#e2ac59;}</style></defs><circle class="cls-1" cx="41.97" cy="31.55" r="14"/><g><path class="cls-2" d="M33.96,16.57c0-.09,.01-.18,.01-.28,0-7.73-6.27-14-14-14S5.97,8.56,5.97,16.29s6.27,14,14,14c1.83,0,3.57-.36,5.17-1,.74-5.51,4.11-10.2,8.82-12.73Z"/><path class="cls-2" d="M33.79,46.45c-4.74-2.61-8.1-7.42-8.71-13.05-1.5-.37-3.06-.59-4.67-.59h-.87C8.75,32.82,0,41.56,0,52.35v12.56c0,2.41,1.96,4.37,4.37,4.37h14.63v-1.66c0-9.71,6.17-18,14.79-21.16Z"/></g><path class="cls-1" d="M57.57,84.54H26.37c-2.41,0-4.37-1.96-4.37-4.37v-12.56c0-10.79,8.75-19.54,19.54-19.54h.87c10.79,0,19.54,8.75,19.54,19.54v12.56c0,2.41-1.96,4.37-4.37,4.37Z"/><path class="cls-1" d="M81.43,0H42.45c-2.41,0-4.36,1.95-4.36,4.36V15.02c1.25-.29,2.54-.46,3.88-.46,3.87,0,7.43,1.31,10.29,3.5,.09-.12,.2-.22,.33-.31l7.73-5.08c.37-.25,.83-.31,1.26-.18,.43,.13,.77,.44,.95,.85l3.31,7.85,12.19-10.84c.06-.06,.13-.1,.2-.15l-2.38-2.33h6.99v6.84l-2.54-2.48c-.08,.13-.17,.25-.29,.36l-13.76,12.23c-.28,.25-.63,.38-1,.38-.11,0-.22-.01-.33-.04-.47-.11-.86-.43-1.05-.88l-3.43-8.12-5.98,3.93c2.78,3.03,4.49,7.05,4.49,11.47,0,2.28-.46,4.45-1.27,6.43h23.73c2.41,0,4.36-1.95,4.36-4.36V4.36c0-2.41-1.95-4.36-4.36-4.36Z"/></svg>