<?xml version="1.0" encoding="utf-8"?>
<svg version="1.1" id="Layer_1" xmlns="http://www.w3.org/2000/svg" xmlns:xlink="http://www.w3.org/1999/xlink" x="0px" y="0px"
	 viewBox="0 0 144 144" style="enable-background:new 0 0 144 144;" xml:space="preserve">
<style type="text/css">
	.st0{fill:#3B56A6;}
</style>
<path class="st0" d="M44,61.5h-1.4C25.1,61.5,11,75.5,11,92.9v20.2c0,3.2,2.1,5.8,5,6.7c-0.6-1.5-0.9-3.1-0.9-4.7V94.6
	c0-7.3,5.9-13.2,13.2-13.2h30.3c7.3,0,13.2,5.9,13.2,13.2v20.5c0,1.6-0.3,3.1-0.8,4.5c2.6-1,4.5-3.6,4.5-6.6V92.9
	C75.6,75.5,61.4,61.4,44,61.5L44,61.5L44,61.5z M18,127h51c1.3,0,2.3,1,2.3,2.3c0,0,0,0,0,0c0,1.3-1,2.3-2.3,2.3H18
	c-1.3,0-2.3-1-2.3-2.3c0,0,0,0,0,0C15.7,128,16.7,127,18,127z"/>
<path class="st0" d="M58.6,86.3H28.4c-4.6,0-8.4,3.8-8.4,8.4v20.5c0,4.6,3.8,8.4,8.4,8.4h30.3c4.6,0,8.4-3.8,8.4-8.4V94.6
	C67,90,63.3,86.3,58.6,86.3z"/>
<ellipse class="st0" cx="43.5" cy="34.9" rx="22.6" ry="22.5"/>
<path class="st0" d="M128.7,25.2H80.8c-2.4,0-4.3,1.9-4.3,4.3V70c0,0,0,0.1,0,0.1l-1.1,7.8c-0.1,0.8,0.2,1.6,0.8,2.1
	c0.4,0.4,1,0.6,1.6,0.6c0.2,0,0.4,0,0.6-0.1l11.6-2.7c0.2,0,0.3-0.1,0.4-0.2h38.4c2.4,0,4.3-1.9,4.3-4.3V29.5
	C133,27.2,131,25.2,128.7,25.2L128.7,25.2z M124.1,67.8H84.4c-0.9,0-1.6-0.7-1.6-1.6v-33c0-0.9,0.7-1.6,1.6-1.6s1.6,0.7,1.6,1.6
	v31.3h8.2V43.5c0-0.9,0.7-1.6,1.6-1.6s1.6,0.7,1.6,1.6v21.1h8.6c0,0,0-0.1,0-0.1V38.1c0-1.1,0.7-2,1.6-2s1.6,0.9,1.6,2v26.4
	c0,0,0,0.1,0,0.1h8.6V42.3c0-0.9,0.7-1.7,1.6-1.7s1.6,0.8,1.6,1.7v22.3h3c0.9,0,1.6,0.7,1.6,1.6S125,67.8,124.1,67.8L124.1,67.8
	L124.1,67.8z"/>
</svg>
