<?xml version="1.0" encoding="UTF-8"?><svg id="Layer_1" xmlns="http://www.w3.org/2000/svg" viewBox="0 0 64.35 77.22"><defs><style>.cls-1{fill:#774f8e;}</style></defs><g><circle class="cls-1" cx="19.97" cy="14" r="14"/><path class="cls-1" d="M21.64,47.4h0s.08-.06,.11-.09c.16-.13,.33-.26,.51-.37,.05-.03,.1-.05,.15-.08,.2-.11,.39-.22,.61-.3,.03-.01,.06-.02,.08-.03,.51-.19,1.06-.31,1.63-.31h7.39v-3.57c0-1.94,1.57-3.52,3.52-3.52h.97c-3.51-5.2-9.46-8.62-16.21-8.62h-.87C8.75,30.52,0,39.27,0,50.06v12.56c0,2.41,1.96,4.37,4.37,4.37h15.6v-15.99c0-1.44,.65-2.72,1.67-3.59Z"/></g><g><path class="cls-1" d="M37.75,45.05c0-.5,.4-.9,.9-.9h9.4c.5,0,.9,.4,.9,.9v3.04h3.25v-3.55c0-1.94-1.57-3.52-3.52-3.52h-10.85c-1.94,0-3.52,1.57-3.52,3.52v3.55h3.44v-3.04Z"/><path class="cls-1" d="M43.35,60.62c-.24,0-.48-.06-.69-.17l-19.67-10.24c-.52,.76-.83,1.66-.83,2.65v19.59c0,2.63,2.13,4.76,4.76,4.76H59.59c2.63,0,4.76-2.13,4.76-4.76v-19.59c0-.99-.31-1.89-.83-2.65l-19.47,10.23c-.22,.11-.46,.17-.7,.17Z"/><polygon class="cls-1" points="61.12 48.09 52.19 48.09 48.94 48.09 37.75 48.09 34.31 48.09 25.4 48.09 43.34 57.43 61.12 48.09"/></g></svg>