<?xml version="1.0" encoding="utf-8"?>
<svg version="1.1" id="Layer_1" xmlns="http://www.w3.org/2000/svg" xmlns:xlink="http://www.w3.org/1999/xlink" x="0px" y="0px"
	 viewBox="0 0 144 144" style="enable-background:new 0 0 144 144;" xml:space="preserve">
<style type="text/css">
	.st0{fill:#008575;}
</style>
<ellipse class="st0" cx="50.2" cy="41.5" rx="22.6" ry="22.5"/>
<path class="st0" d="M75.4,126.7H25c-3.9,0-7.1-3.2-7.1-7V99.5C18,82.1,32.1,68,49.5,68H51c17.4,0,31.6,14.1,31.6,31.4v20.2
	C82.5,123.6,79.4,126.7,75.4,126.7L75.4,126.7L75.4,126.7z M107,83.5c1.4,0.1,2.8-0.3,4-1.1c2.1-1.2,4.2-2.4,6.3-3.6
	c2.3-1.3,4.6-2.6,6.9-4c1.4-0.8,2.1-2.3,1.8-3.8c-0.6-2.3-3-3.4-5.1-2.2c-1.8,1-3.6,2.1-5.4,3.1c-0.5,0.3-0.7,0.6-0.8,1.2
	c-0.6,3.3-3.8,5.5-7.1,4.9c-2.3-0.4-4.6-1.1-6.8-1.8c-0.5-0.1-0.8-0.5-0.9-1c-0.2-0.9,0.6-1.9,2-1.5c1.9,0.6,3.9,1.1,5.8,1.6
	c0.6,0.1,1.2,0.1,1.8,0c1.6-0.3,2.6-1.7,2.6-3.3c0-1.6-1.1-2.9-2.7-3.4c-3-0.8-6-1.6-9-2.4c-2-0.5-3.8-0.3-5.6,0.8
	c-3.7,2.2-7.5,4.3-11.2,6.4c-1,0.6-1.2,1.3-0.6,2.3c1.8,3.2,3.7,6.3,5.5,9.5c0.6,1,1.3,1.2,2.3,0.6c1.6-0.9,3.1-1.8,4.7-2.7
	c0.2-0.1,0.3-0.2,0.5-0.2c0.9,0,1.8,0.1,2.7,0.1C101.4,83.1,104.2,83.3,107,83.5L107,83.5L107,83.5z M87.8,27.6c2.4,0,4.8,0,7.1,0
	c1.4,0,2.3-1,2.3-2.3v-6.7c0-0.5-0.2-1-0.7-1.2c-0.6-0.2-1,0-1.4,0.4c-2.7,2.6-5.4,5.3-8.2,7.9c-0.4,0.4-0.6,0.8-0.3,1.3
	C86.9,27.4,87.3,27.6,87.8,27.6L87.8,27.6L87.8,27.6z"/>
<path class="st0" d="M117.5,17.3h-18c0.2,0.4,0.2,0.9,0.2,1.3v6.7c0,2.7-2,4.7-4.7,4.7h-7.2c-0.5,0-0.9-0.1-1.4-0.3v27
	c0,1.8,1.4,3.2,3.3,3.2h13.6l12,0.1h2.1c1.8,0,3.3-1.5,3.3-3.2V20.5C120.7,18.7,119.3,17.3,117.5,17.3z M113.5,43.2l-2,0.5
	c-0.1,0-0.2,0.1-0.2,0.2c-0.1,0.3-0.3,0.6-0.4,0.9c0,0.1,0,0.2,0,0.2c0.3,0.5,0.6,1,0.9,1.5c0.2,0.4,0.2,0.6-0.1,0.9
	c-0.5,0.5-0.9,1-1.4,1.4c-0.3,0.3-0.5,0.3-0.9,0.1c-0.5-0.3-0.9-0.6-1.4-0.8c-0.1-0.1-0.2-0.1-0.3,0c-0.3,0.1-0.6,0.3-0.9,0.4
	c-0.1,0-0.2,0.1-0.2,0.2c-0.2,0.7-0.3,1.3-0.5,2c-0.1,0.4-0.3,0.5-0.7,0.5h-2.1c-0.4,0-0.6-0.1-0.7-0.5c-0.2-0.6-0.3-1.3-0.5-2
	c0-0.1-0.1-0.2-0.2-0.2c-0.3-0.1-0.6-0.2-0.9-0.4c-0.1,0-0.2,0-0.3,0c-0.5,0.3-0.9,0.6-1.4,0.8c-0.4,0.2-0.6,0.2-0.9-0.1l-1.4-1.5
	c-0.3-0.3-0.3-0.5-0.1-0.9c0.3-0.5,0.6-1,0.9-1.4c0.1-0.1,0.1-0.2,0-0.3c-0.2-0.3-0.3-0.6-0.4-1c-0.1-0.1-0.1-0.2-0.2-0.2
	c-0.6-0.1-1.2-0.3-1.9-0.5c-0.3-0.1-0.5-0.2-0.7-0.5v-2.6c0.1-0.3,0.3-0.4,0.6-0.5c0.6-0.1,1.3-0.3,1.9-0.5c0.1,0,0.2-0.1,0.2-0.2
	c0.1-0.3,0.2-0.5,0.3-0.8c0.1-0.1,0.1-0.2,0-0.3c-0.3-0.5-0.7-1.1-1-1.6c-0.2-0.3-0.2-0.6,0.1-0.9c0.5-0.5,0.9-1,1.4-1.4
	c0.3-0.3,0.5-0.3,0.9-0.1c0.5,0.3,1,0.6,1.5,0.9c0.1,0.1,0.2,0.1,0.3,0c0.3-0.1,0.7-0.3,1-0.4c0.1,0,0.2-0.1,0.2-0.2
	c0.2-0.6,0.3-1.2,0.4-1.8c0.1-0.3,0.2-0.5,0.4-0.6h2.6c0.3,0.1,0.4,0.3,0.4,0.6c0.2,0.6,0.3,1.2,0.4,1.8c0,0.1,0.1,0.2,0.2,0.2
	c0.3,0.1,0.6,0.3,0.9,0.4c0.1,0,0.2,0,0.3,0c0.5-0.3,1-0.6,1.5-0.9c0.4-0.2,0.6-0.2,0.9,0.1c0.5,0.5,1,1,1.4,1.4
	c0.3,0.3,0.3,0.5,0.1,0.9c-0.3,0.5-0.6,1-0.9,1.5c-0.1,0.1-0.1,0.2,0,0.3c0.2,0.3,0.3,0.6,0.4,0.9c0.1,0.1,0.1,0.2,0.2,0.2
	c0.7,0.2,1.3,0.3,2,0.5c0.4,0.1,0.5,0.3,0.5,0.7v2.1C113.9,42.9,113.8,43.1,113.5,43.2L113.5,43.2L113.5,43.2z"/>
<path class="st0" d="M104.3,37.5c-2.2,0-4,1.8-4,4s1.8,4,4,4s4-1.8,4-4S106.5,37.5,104.3,37.5z"/>
</svg>
