<svg xmlns="http://www.w3.org/2000/svg" id="icon-service-provider" viewBox="0 0 144 144">
  <defs/>
  <path d="M100.37 2.41c-13.87 0-25.16 11.23-25.16 25.06 0 5.76 1.99 11.33 5.62 15.79l-2.8 5.76c-.26.53-.21 1.14.13 1.63.34.48.91.74 1.49.68l10.39-1.01c3.26 1.46 6.72 2.2 10.33 2.2 13.87 0 25.16-11.23 25.16-25.06S114.26 2.41 100.37 2.41ZM87.93 35.72c0-.89.73-1.61 1.62-1.61h21.66c.89 0 1.62.72 1.62 1.61s-.73 1.61-1.62 1.61H89.55c-.89 0-1.62-.72-1.62-1.61Zm0-8.25c0-.89.73-1.61 1.62-1.61h21.66c.89 0 1.62.72 1.62 1.61s-.73 1.61-1.62 1.61H89.55c-.89 0-1.62-.72-1.62-1.61Zm23.27-6.65H89.54c-.89 0-1.62-.72-1.62-1.61s.73-1.61 1.62-1.61h21.66c.89 0 1.62.72 1.62 1.61s-.73 1.61-1.62 1.61ZM50.74 22.35c-11.07 0-20.27 7.92-22.22 18.38.24-.06.5-.11.78-.11 1.5.02 2.75 1.26 2.76 2.75.02 1.17.02 2.35 0 3.52 0 .74-.32 1.42-.82 1.92 1.86 4.39 5.22 6.66 10.02 6.95.48-1.55 1.92-2.72 3.62-2.74 1.63-.02 3.26-.02 4.9 0 2.08.03 3.78 1.75 3.81 3.81.03 2.04-1.58 3.77-3.67 3.88-.86.05-1.73 0-2.6 0s-1.73.03-2.6 0c-1.68-.08-3.04-1.24-3.49-2.75-5.28-.03-10.18-3.43-12.07-8.34-.19 0-.37-.03-.55-.08 2.15 10.2 11.25 17.88 22.14 17.88 12.49 0 22.63-10.09 22.63-22.53S63.25 22.36 50.75 22.36v-.02ZM51.45 71.47h-1.41c-17.44 0-31.58 14.08-31.58 31.45v20.22c0 3.15 2.1 5.79 4.98 6.68a12.84 12.84 0 0 1-.87-4.68v-20.49c0-7.27 5.95-13.2 13.25-13.2h30.26c7.31 0 13.25 5.92 13.25 13.2v20.49c0 1.59-.31 3.12-.82 4.54 2.63-1.01 4.53-3.56 4.53-6.55v-20.22c0-17.37-14.14-31.45-31.58-31.45v.02ZM25.45 137.01h50.99a2.3 2.3 0 0 1 2.31 2.29c0 1.27-1.03 2.29-2.31 2.29H25.45a2.3 2.3 0 0 1-2.31-2.29c0-1.27 1.03-2.29 2.31-2.29Z" class="cls-1"/>
  <path d="M66.08 96.27H35.81c-4.64 0-8.4 3.75-8.4 8.37v20.49c0 4.62 3.77 8.37 8.4 8.37h30.27c4.64 0 8.4-3.75 8.4-8.37v-20.49c0-4.62-3.77-8.37-8.4-8.37ZM59 116.37c-.57.14-1.15.29-1.71.42-.11.03-.16.08-.21.18-.1.27-.23.53-.32.79-.02.06-.02.14 0 .21.26.43.52.87.78 1.29.19.32.18.52-.1.77l-1.26 1.26c-.26.26-.47.29-.79.1-.42-.24-.84-.5-1.24-.76a.265.265 0 0 0-.26-.02c-.27.13-.55.24-.84.35-.11.05-.15.1-.18.21-.13.58-.27 1.14-.42 1.71-.08.32-.24.45-.58.45h-1.83c-.34 0-.5-.13-.6-.45-.15-.56-.29-1.14-.42-1.71-.03-.11-.08-.16-.18-.21-.27-.1-.55-.23-.81-.34-.1-.05-.16-.03-.26.02-.4.26-.82.5-1.24.74-.31.18-.52.16-.76-.08-.42-.42-.86-.85-1.28-1.27-.24-.24-.27-.45-.1-.76.24-.42.5-.84.76-1.24.05-.08.05-.14 0-.24-.13-.27-.24-.55-.36-.84-.03-.1-.1-.13-.18-.16-.55-.13-1.08-.27-1.63-.39-.26-.05-.45-.16-.57-.4v-2.25c.1-.23.27-.34.52-.39.55-.13 1.1-.27 1.66-.4.11-.03.16-.06.21-.18.08-.23.18-.47.27-.69.05-.1.03-.16 0-.26-.29-.47-.57-.93-.84-1.4-.18-.31-.16-.52.1-.77l1.26-1.26c.27-.27.47-.29.79-.1.45.27.91.53 1.36.8.08.05.15.05.24 0 .29-.13.58-.26.89-.37.1-.03.13-.1.16-.18.13-.55.27-1.08.39-1.63.05-.26.16-.45.4-.56h2.26c.24.11.34.31.4.56.13.55.26 1.08.39 1.63.02.1.06.14.16.18l.82.34c.06.03.16.02.23 0 .45-.26.89-.53 1.33-.79.31-.18.5-.16.76.1l1.26 1.26c.26.26.29.45.1.77-.26.42-.52.85-.78 1.27-.06.1-.06.18-.02.27.11.26.23.52.34.79.03.11.1.14.21.18.58.13 1.15.27 1.71.42.32.08.45.24.45.58v1.82c0 .34-.13.5-.45.6l-.02.03Z" class="cls-1"/>
  <path d="M50.93 111.4c-1.91 0-3.49 1.58-3.49 3.48s1.58 3.48 3.49 3.48 3.49-1.58 3.49-3.48-1.58-3.48-3.49-3.48Z" class="cls-1"/>
</svg>
