<svg xmlns="http://www.w3.org/2000/svg" viewBox="0 0 144 144">
  <defs/>
  <ellipse cx="32.41" cy="47.07" class="cls-1" rx="22.72" ry="22.62"/>
  <path d="M52.75 74.66c.18-.31.37-.61.55-.92.31-.48.34-.89.1-1.44-.78-1.7-1.44-3.44-2.22-5.14a28.04 28.04 0 0 1-5.5 3.98c2.5.9 4.85 2.1 7.08 3.51v.02Z" class="cls-1"/>
  <path d="M144 47.85c0-1.97-.83-3.05-2.74-3.54-3.67-.92-7.33-1.84-11.02-2.7-.73-.18-1.1-.5-1.38-1.21-.65-1.7-1.36-3.36-2.11-5.01-.26-.57-.26-1 .08-1.55 1.67-2.71 3.29-5.45 4.95-8.18 1.27-2.1 1.12-3.3-.62-5.03-2.66-2.65-5.31-5.3-7.97-7.93-1.64-1.63-2.89-1.78-4.88-.58-2.77 1.65-5.55 3.28-8.31 4.96-.55.34-.97.34-1.54.08-1.69-.76-3.39-1.5-5.13-2.15-.67-.24-.91-.63-1.05-1.24-.89-3.67-1.78-7.32-2.71-10.97C99.02.81 97.96 0 95.92 0H84.11c-1.98 0-3.09.82-3.57 2.73-.92 3.68-1.85 7.39-2.73 11.07-.15.65-.45.99-1.09 1.23-1.83.69-3.63 1.47-5.4 2.29-.65.29-1.1.32-1.74-.06-2.81-1.73-5.65-3.39-8.47-5.09-2.13-1.26-3.34-1.13-5.06.58-2.66 2.65-5.32 5.28-7.97 7.93-1.02 1.02-1.46 1.92-1.35 2.94C54.67 28.45 60 37.13 60 47.05c0 7.93-3.41 15.08-8.81 20.09.78 1.7 1.44 3.44 2.22 5.14.26.55.21.94-.1 1.44-.18.31-.37.61-.55.92 6.47 4.12 11.55 10.21 14.39 17.42.91-.55 1.82-1.08 2.71-1.63.65-.4 1.15-.39 1.83-.08 1.62.74 3.26 1.44 4.93 2.05.7.26 1.05.61 1.22 1.36.81 3.49 1.72 6.96 2.53 10.47.34 1.49 1.07 2.6 2.48 3.26h14.34c1.56-.69 2.19-1.97 2.55-3.57.78-3.44 1.67-6.85 2.5-10.26.15-.58.39-.94 1.01-1.16 1.87-.71 3.7-1.5 5.5-2.33.55-.26.94-.21 1.43.1 2.66 1.62 5.35 3.22 8.03 4.82 2.04 1.21 3.33 1.07 4.98-.58 2.66-2.65 5.32-5.28 7.97-7.95 1.69-1.7 1.83-2.89.6-4.94-1.64-2.73-3.29-5.45-4.9-8.19-.19-.34-.23-.92-.08-1.29.67-1.73 1.46-3.39 2.11-5.12.24-.66.63-.9 1.25-1.05 3.68-.89 7.35-1.79 11.02-2.71 2-.5 2.81-1.55 2.81-3.6V47.91l.02-.03ZM89.9 75.79c-12.46-.24-22.07-10.08-21.97-22.17.1-12.41 10.09-21.98 22.23-21.88 12.46.1 22.07 10.05 21.97 22.14-.1 12.41-10.09 21.85-22.23 21.91ZM50.26 130.15v-6.67l.45-.97c.68-1.49 1.88-2.59 3.39-3.18-.91-2.26-.41-4.67 1.41-6.48l2.56-2.54c1.56-1.55 3.2-1.87 4.3-1.87.81 0 1.59.16 2.37.5.02-.06.05-.13.08-.19v-3.39c0-17.44-14.2-31.58-31.71-31.58H31.7c-17.51 0-31.71 14.14-31.71 31.58v20.3c0 3.89 3.18 7.06 7.09 7.06h44.66c-.52-.57-.86-1.15-1.05-1.58l-.44-.95v-.02Z" class="cls-1"/>
  <path d="M70.07 109.66h4.58c.49.23.7.63.81 1.15.24 1.1.54 2.18.8 3.28.05.19.13.29.32.37.57.21 1.1.47 1.67.68.13.05.32.03.45-.03.91-.52 1.78-1.07 2.69-1.58.62-.37 1.02-.32 1.54.19.86.86 1.72 1.71 2.56 2.55.54.53.58.92.19 1.58-.52.86-1.04 1.73-1.56 2.59-.11.19-.13.34-.03.55.24.52.47 1.07.68 1.6.08.21.19.31.42.36 1.17.27 2.32.57 3.49.86.67.16.92.5.92 1.16v3.68c0 .69-.24 1.02-.92 1.2-1.17.29-2.32.58-3.49.86-.23.05-.34.15-.42.37-.21.53-.45 1.07-.67 1.6-.05.11-.03.31.02.42.5.87 1.04 1.75 1.56 2.62.39.66.36 1.05-.19 1.58-.84.84-1.7 1.7-2.55 2.54-.54.53-.94.58-1.59.19-.84-.5-1.69-1-2.53-1.52-.18-.11-.31-.13-.52-.03-.55.26-1.12.5-1.7.71-.21.08-.31.19-.36.42-.28 1.16-.57 2.31-.86 3.47-.16.66-.5.92-1.17.92h-3.7c-.7 0-1.02-.24-1.2-.92-.29-1.16-.58-2.31-.86-3.47-.05-.23-.16-.34-.37-.42-.55-.21-1.1-.44-1.64-.69-.19-.1-.34-.08-.52.03-.83.52-1.67 1-2.5 1.5-.62.37-1.04.32-1.54-.18-.86-.86-1.74-1.71-2.6-2.59-.5-.5-.55-.92-.19-1.54.5-.84 1.01-1.68 1.53-2.52.11-.18.11-.31.02-.48-.26-.55-.5-1.12-.71-1.7a.498.498 0 0 0-.37-.32c-1.1-.26-2.19-.55-3.29-.79-.5-.11-.92-.32-1.15-.81v-4.56c.21-.45.57-.68 1.04-.79 1.12-.26 2.24-.55 3.36-.81.21-.05.34-.13.42-.36.16-.47.36-.94.57-1.39.1-.19.08-.34-.03-.52-.58-.94-1.15-1.89-1.72-2.84-.37-.63-.32-1.05.19-1.57.84-.84 1.7-1.7 2.55-2.54.55-.55.94-.6 1.62-.19.91.55 1.83 1.08 2.74 1.63.18.11.31.11.49.03.58-.27 1.18-.52 1.78-.76.19-.08.28-.19.32-.37.26-1.1.55-2.18.8-3.28.11-.5.32-.92.81-1.15l.02.02Zm9.36 17.16c0-3.86-3.21-7.05-7.08-7.03-3.88 0-7.08 3.2-7.06 7.05 0 3.86 3.21 7.05 7.08 7.03 3.88 0 7.08-3.2 7.06-7.05Z" class="cls-1"/>
</svg>
