<?xml version="1.0" encoding="utf-8"?>
<svg version="1.1" id="Layer_1" xmlns="http://www.w3.org/2000/svg" xmlns:xlink="http://www.w3.org/1999/xlink" x="0px" y="0px"
	 viewBox="0 0 144 144" style="enable-background:new 0 0 144 144;" xml:space="preserve">
<style type="text/css">
	.st0{fill:#D1993A;}
	.st1{fill:#E2AC59;}
</style>
<ellipse class="st0" cx="70.5" cy="54.1" rx="23.5" ry="23.4"/>
<path class="st1" d="M57,29c0-0.1,0-0.3,0-0.5C57,15.6,46.5,5.2,33.5,5.2S10,15.6,10,28.6S20.5,52,33.5,52c3.1,0,6-0.6,8.7-1.7
	C43.4,41.1,49.1,33.3,57,29L57,29L57,29z M56.7,79c-8-4.4-13.6-12.4-14.6-21.8c-2.5-0.6-5.1-1-7.8-1h-1.5C14.7,56.2,0,70.8,0,88.8
	v21c0,4,3.3,7.3,7.3,7.3h24.6v-2.8C31.9,98.1,42.3,84.3,56.7,79L56.7,79L56.7,79z"/>
<path class="st0" d="M96.7,142.7H44.3c-4,0-7.3-3.3-7.3-7.3v-21c0-18,14.7-32.7,32.8-32.7h1.5c18.1,0,32.8,14.6,32.8,32.7v21
	C104,139.4,100.7,142.7,96.7,142.7L96.7,142.7L96.7,142.7z M136.7,1.3H71.3c-4.1,0-7.3,3.3-7.3,7.3v17.8c2.1-0.5,4.3-0.8,6.5-0.8
	c6.5,0,12.5,2.2,17.3,5.9c0.2-0.2,0.3-0.4,0.6-0.5l13-8.5c0.6-0.4,1.4-0.5,2.1-0.3c0.7,0.2,1.3,0.7,1.6,1.4l5.6,13.1L131,18.6
	c0.1-0.1,0.2-0.2,0.3-0.2l-4-3.9h11.7v11.4l-4.3-4.1c-0.1,0.2-0.3,0.4-0.5,0.6l-23.1,20.5c-0.5,0.4-1.1,0.6-1.7,0.6
	c-0.2,0-0.4,0-0.6-0.1c-0.8-0.2-1.4-0.7-1.8-1.5l-5.8-13.6l-10,6.6C96.1,40,99,46.7,99,54.1c0,3.8-0.8,7.4-2.1,10.7h39.8
	c4.1,0,7.3-3.3,7.3-7.3V8.6C144,4.6,140.8,1.3,136.7,1.3L136.7,1.3L136.7,1.3z"/>
</svg>
