<?xml version="1.0" encoding="utf-8"?>
<svg version="1.1" id="Layer_1" xmlns="http://www.w3.org/2000/svg" xmlns:xlink="http://www.w3.org/1999/xlink" x="0px" y="0px"
	 viewBox="0 0 144 144" style="enable-background:new 0 0 144 144;" xml:space="preserve">
<style type="text/css">
	.st0{fill:#177F96;}
</style>
<ellipse class="st0" cx="32.4" cy="47.1" rx="22.7" ry="22.6"/>
<path class="st0" d="M52.8,74.7c0.2-0.3,0.4-0.6,0.5-0.9c0.3-0.5,0.3-0.9,0.1-1.4c-0.8-1.7-1.4-3.4-2.2-5.1c-1.7,1.5-3.5,2.9-5.5,4
	C48.2,72,50.5,73.2,52.8,74.7L52.8,74.7L52.8,74.7z"/>
<path class="st0" d="M144,47.8c0-2-0.8-3-2.7-3.5c-3.7-0.9-7.3-1.8-11-2.7c-0.7-0.2-1.1-0.5-1.4-1.2c-0.6-1.7-1.4-3.4-2.1-5
	c-0.3-0.6-0.3-1,0.1-1.5c1.7-2.7,3.3-5.5,4.9-8.2c1.3-2.1,1.1-3.3-0.6-5c-2.7-2.6-5.3-5.3-8-7.9c-1.6-1.6-2.9-1.8-4.9-0.6
	c-2.8,1.6-5.6,3.3-8.3,5c-0.6,0.3-1,0.3-1.5,0.1c-1.7-0.8-3.4-1.5-5.1-2.1c-0.7-0.2-0.9-0.6-1.1-1.2c-0.9-3.7-1.8-7.3-2.7-11
	C99,0.8,98,0,95.9,0H84.1c-2,0-3.1,0.8-3.6,2.7c-0.9,3.7-1.8,7.4-2.7,11.1c-0.2,0.6-0.4,1-1.1,1.2c-1.8,0.7-3.6,1.5-5.4,2.3
	c-0.7,0.3-1.1,0.3-1.7-0.1c-2.8-1.7-5.7-3.4-8.5-5.1C59,10.9,57.8,11,56,12.8c-2.7,2.6-5.3,5.3-8,7.9c-1,1-1.5,1.9-1.3,2.9
	C54.7,28.5,60,37.1,60,47c0,7.9-3.4,15.1-8.8,20.1c0.8,1.7,1.4,3.4,2.2,5.1c0.3,0.6,0.2,0.9-0.1,1.4c-0.2,0.3-0.4,0.6-0.5,0.9
	c6.5,4.1,11.6,10.2,14.4,17.4c0.9-0.6,1.8-1.1,2.7-1.6c0.7-0.4,1.2-0.4,1.8-0.1c1.6,0.7,3.3,1.4,4.9,2.1c0.7,0.3,1.1,0.6,1.2,1.4
	c0.8,3.5,1.7,7,2.5,10.5c0.3,1.5,1.1,2.6,2.5,3.3h14.3c1.6-0.7,2.2-2,2.6-3.6c0.8-3.4,1.7-6.8,2.5-10.3c0.2-0.6,0.4-0.9,1-1.2
	c1.9-0.7,3.7-1.5,5.5-2.3c0.6-0.3,0.9-0.2,1.4,0.1c2.7,1.6,5.3,3.2,8,4.8c2,1.2,3.3,1.1,5-0.6c2.7-2.7,5.3-5.3,8-7.9
	c1.7-1.7,1.8-2.9,0.6-4.9c-1.6-2.7-3.3-5.4-4.9-8.2c-0.2-0.3-0.2-0.9-0.1-1.3c0.7-1.7,1.5-3.4,2.1-5.1c0.2-0.7,0.6-0.9,1.2-1.1
	c3.7-0.9,7.4-1.8,11-2.7c2-0.5,2.8-1.5,2.8-3.6L144,47.8L144,47.8L144,47.8z M89.9,75.8c-12.5-0.2-22.1-10.1-22-22.2
	C68,41.2,78,31.6,90.2,31.7c12.5,0.1,22.1,10.1,22,22.1C112,66.3,102,75.7,89.9,75.8z M50.3,130.1v-6.7l0.5-1
	c0.7-1.5,1.9-2.6,3.4-3.2c-0.9-2.3-0.4-4.7,1.4-6.5l2.6-2.5c1.6-1.6,3.2-1.9,4.3-1.9c0.8,0,1.6,0.2,2.4,0.5c0-0.1,0.1-0.1,0.1-0.2
	v-3.4c0-17.4-14.2-31.6-31.7-31.6h-1.4C14.2,73.8,0,87.9,0,105.4v20.3c0,3.9,3.2,7.1,7.1,7.1h44.7c-0.5-0.6-0.9-1.1-1-1.6
	L50.3,130.1L50.3,130.1L50.3,130.1z"/>
<path class="st0" d="M70.1,109.7h4.6c0.5,0.2,0.7,0.6,0.8,1.2c0.2,1.1,0.5,2.2,0.8,3.3c0.1,0.2,0.1,0.3,0.3,0.4
	c0.6,0.2,1.1,0.5,1.7,0.7c0.1,0.1,0.3,0,0.4,0c0.9-0.5,1.8-1.1,2.7-1.6c0.6-0.4,1-0.3,1.5,0.2c0.9,0.9,1.7,1.7,2.6,2.6
	c0.5,0.5,0.6,0.9,0.2,1.6c-0.5,0.9-1,1.7-1.6,2.6c-0.1,0.2-0.1,0.3,0,0.6c0.2,0.5,0.5,1.1,0.7,1.6c0.1,0.2,0.2,0.3,0.4,0.4
	c1.2,0.3,2.3,0.6,3.5,0.9c0.7,0.2,0.9,0.5,0.9,1.2v3.7c0,0.7-0.2,1-0.9,1.2c-1.2,0.3-2.3,0.6-3.5,0.9c-0.2,0.1-0.3,0.1-0.4,0.4
	c-0.2,0.5-0.4,1.1-0.7,1.6c-0.1,0.1,0,0.3,0,0.4c0.5,0.9,1,1.8,1.6,2.6c0.4,0.7,0.4,1.1-0.2,1.6c-0.8,0.8-1.7,1.7-2.6,2.5
	c-0.5,0.5-0.9,0.6-1.6,0.2c-0.8-0.5-1.7-1-2.5-1.5c-0.2-0.1-0.3-0.1-0.5,0c-0.6,0.3-1.1,0.5-1.7,0.7c-0.2,0.1-0.3,0.2-0.4,0.4
	c-0.3,1.2-0.6,2.3-0.9,3.5c-0.2,0.7-0.5,0.9-1.2,0.9h-3.7c-0.7,0-1-0.2-1.2-0.9c-0.3-1.2-0.6-2.3-0.9-3.5c-0.1-0.2-0.2-0.3-0.4-0.4
	c-0.6-0.2-1.1-0.4-1.6-0.7c-0.2-0.1-0.3-0.1-0.5,0c-0.8,0.5-1.7,1-2.5,1.5c-0.6,0.4-1,0.3-1.5-0.2c-0.9-0.9-1.7-1.7-2.6-2.6
	c-0.5-0.5-0.5-0.9-0.2-1.5c0.5-0.8,1-1.7,1.5-2.5c0.1-0.2,0.1-0.3,0-0.5c-0.3-0.6-0.5-1.1-0.7-1.7c-0.1-0.2-0.2-0.3-0.4-0.3
	c-1.1-0.3-2.2-0.6-3.3-0.8c-0.5-0.1-0.9-0.3-1.2-0.8v-4.6c0.2-0.4,0.6-0.7,1-0.8c1.1-0.3,2.2-0.6,3.4-0.8c0.2-0.1,0.3-0.1,0.4-0.4
	c0.2-0.5,0.4-0.9,0.6-1.4c0.1-0.2,0.1-0.3,0-0.5c-0.6-0.9-1.2-1.9-1.7-2.8c-0.4-0.6-0.3-1.1,0.2-1.6c0.8-0.8,1.7-1.7,2.5-2.5
	c0.5-0.6,0.9-0.6,1.6-0.2c0.9,0.6,1.8,1.1,2.7,1.6c0.2,0.1,0.3,0.1,0.5,0c0.6-0.3,1.2-0.5,1.8-0.8c0.2-0.1,0.3-0.2,0.3-0.4
	c0.3-1.1,0.6-2.2,0.8-3.3C69.4,110.3,69.6,109.9,70.1,109.7L70.1,109.7L70.1,109.7z M79.4,126.8c0-3.9-3.2-7.1-7.1-7
	c-3.9,0-7.1,3.2-7.1,7.1c0,3.9,3.2,7.1,7.1,7C76.2,133.9,79.5,130.7,79.4,126.8z"/>
</svg>
