<svg xmlns="http://www.w3.org/2000/svg" viewBox="0 0 144 144">
  <defs/>
  <ellipse cx="50.23" cy="41.46" class="cls-1" rx="22.63" ry="22.53"/>
  <path d="M75.44 126.73H25.02c-3.9 0-7.06-3.15-7.06-7.03V99.48c0-17.37 14.14-31.45 31.58-31.45h1.41c17.44 0 31.58 14.08 31.58 31.45v20.22c0 3.88-3.17 7.03-7.06 7.03h-.02ZM107.02 83.53c1.45.05 2.76-.35 3.99-1.08 2.1-1.22 4.2-2.43 6.32-3.64 2.29-1.32 4.59-2.62 6.87-3.96 1.44-.84 2.1-2.33 1.75-3.81-.57-2.3-3.04-3.38-5.12-2.22-1.79 1-3.57 2.06-5.37 3.06-.5.27-.73.6-.82 1.17-.58 3.33-3.81 5.52-7.05 4.93-2.31-.42-4.56-1.14-6.82-1.75-.52-.14-.81-.52-.94-1.03-.19-.89.61-1.93 1.96-1.53 1.94.56 3.88 1.08 5.83 1.55.57.13 1.21.14 1.76 0 1.55-.35 2.6-1.74 2.62-3.32 0-1.61-1.05-2.95-2.72-3.4-3.01-.8-6.03-1.59-9.03-2.41-1.97-.53-3.83-.26-5.59.76-3.72 2.16-7.47 4.3-11.2 6.44-.99.56-1.2 1.29-.63 2.27 1.83 3.15 3.65 6.31 5.5 9.48.58 1.01 1.29 1.21 2.31.63 1.55-.9 3.12-1.8 4.69-2.69.15-.08.34-.16.52-.16.89.03 1.78.1 2.68.14 2.84.18 5.69.37 8.53.56l-.03.02ZM87.81 27.6c2.38 0 4.75.02 7.13 0 1.39 0 2.31-.95 2.31-2.3v-6.74c0-.55-.16-.97-.68-1.19-.55-.23-1-.03-1.39.35-2.73 2.64-5.45 5.26-8.18 7.89-.37.37-.55.79-.34 1.27.21.5.63.71 1.16.71l-.02.02Z" class="cls-1"/>
  <path d="M117.46 17.27h-18c.15.42.23.85.23 1.34v6.7c0 2.7-1.99 4.67-4.7 4.7h-7.16c-.48 0-.94-.11-1.36-.27v26.99c0 1.79 1.45 3.25 3.26 3.25h13.64l12.04.06h2.07c1.79 0 3.26-1.45 3.26-3.25V20.52c-.03-1.8-1.49-3.25-3.28-3.25Zm-4 25.88-1.96.48c-.13.03-.19.08-.23.21-.11.31-.26.6-.37.9-.03.06-.02.18 0 .24.29.5.58.98.87 1.48.23.37.19.58-.11.89-.47.48-.95.95-1.44 1.43-.31.29-.53.32-.89.11-.47-.29-.95-.56-1.42-.85-.1-.06-.18-.08-.29-.02-.31.14-.63.27-.95.4-.13.05-.18.11-.21.24-.16.66-.32 1.3-.48 1.95-.1.37-.27.52-.66.52h-2.08c-.39 0-.58-.14-.68-.52-.16-.64-.32-1.3-.48-1.95-.03-.13-.08-.19-.21-.23-.31-.11-.61-.24-.92-.39-.11-.05-.19-.05-.29.02-.47.29-.94.56-1.41.84-.36.21-.58.18-.87-.1l-1.45-1.45c-.27-.29-.31-.52-.11-.87.29-.47.57-.95.86-1.42.06-.1.06-.18 0-.27-.15-.31-.27-.63-.4-.95-.05-.11-.11-.16-.21-.18-.61-.14-1.23-.31-1.86-.45-.29-.06-.52-.18-.65-.45V40.2c.11-.26.32-.39.58-.45.63-.14 1.26-.31 1.89-.45.11-.03.19-.08.24-.21.1-.26.21-.53.32-.79.05-.11.05-.19-.02-.29-.32-.53-.65-1.06-.97-1.59-.21-.35-.18-.6.11-.87.47-.48.95-.95 1.44-1.43.31-.31.53-.34.91-.11.52.31 1.03.61 1.54.92.1.06.18.06.27 0 .34-.14.66-.29 1-.43.11-.05.16-.11.18-.21.15-.61.31-1.22.45-1.85.06-.29.18-.52.45-.64h2.57c.27.13.39.35.45.64.15.61.31 1.22.45 1.85.03.11.06.16.18.21.32.11.63.27.94.39.08.03.19.02.26-.02.5-.29 1-.6 1.52-.9.36-.21.58-.18.86.11.48.48.97.97 1.44 1.43.31.31.32.52.11.89-.29.48-.58.97-.87 1.45-.06.11-.08.19-.02.31.15.29.26.6.39.9.05.13.11.18.24.21.66.16 1.31.32 1.96.48.37.1.52.27.52.66v2.08c0 .39-.15.58-.52.68l.05-.02Z" class="cls-1"/>
  <path d="M104.29 37.48c-2.18 0-3.98 1.8-3.98 3.96s1.81 3.96 3.98 3.96 3.98-1.8 3.98-3.96-1.81-3.96-3.98-3.96Z" class="cls-1"/>
</svg>
