<svg xmlns="http://www.w3.org/2000/svg" viewBox="0 0 144 144">
  <defs/>
  <path d="M78.11 58.3c-10.8-12.54-29.82-14-42.41-3.25-12.59 10.75-14.06 29.7-3.26 42.23 9.33 10.83 24.78 13.39 36.93 6.97.19 1.08.65 2.14 1.41 3.03l15.47 17.98c2.29 2.67 6.32 2.98 9 .69l1.7-1.45a6.326 6.326 0 0 0 .69-8.96L82.17 97.56a6.29 6.29 0 0 0-2.8-1.85c8.23-10.98 8.05-26.57-1.26-37.4Zm-8.79 35.83c-9.03 7.71-22.71 6.66-30.45-2.33-7.74-9-6.69-22.61 2.34-30.32 9.03-7.71 22.71-6.66 30.45 2.33 7.74 9.01 6.69 22.61-2.34 30.32ZM35.46 38.96c5.16 0 10.33.05 15.48 0 3.04-.03 5.01-2.06 5.03-4.99v-7.23c0-2.48-.03-4.94 0-7.42.02-1.17-.37-2.09-1.49-2.58-1.18-.5-2.17-.05-3.04.79-5.92 5.71-11.83 11.43-17.76 17.14-.82.79-1.2 1.69-.76 2.77.44 1.09 1.37 1.53 2.52 1.53l.02-.02Z" class="cls-1"/>
  <path d="M44.38 112.85v1.4c0 3.89 3.17 7.05 7.08 7.05h28.17l-7.27-8.45H44.38ZM111.73 28.45h-1.15v77.35c0 3.89-3.17 7.05-7.08 7.05h-5.03l.97 1.13a8.63 8.63 0 0 1 2.1 6.37c-.03.32-.06.63-.13.93h10.3c3.91 0 7.08-3.15 7.08-7.05V35.5c0-3.89-3.17-7.05-7.08-7.05h.02ZM62.97 109.23h6.27l-.31-.37c-.34-.4-.65-.84-.92-1.29-1.63.69-3.31 1.24-5.04 1.66ZM49.46 70.18h23.39c-.74-1.71-1.75-3.32-3.02-4.8-1.66-1.93-3.68-3.46-5.92-4.59H49.46c-.61 0-1.18-.21-1.63-.56-1.81.76-3.51 1.79-5.03 3.07-3.88 3.32-6.24 7.93-6.63 13.04a18.987 18.987 0 0 0 4.54 13.89c3.64 4.23 8.95 6.66 14.58 6.66 4.57 0 9-1.63 12.46-4.59 5.03-4.28 7.27-10.62 6.56-16.72H49.45c-1.5 0-2.72-1.21-2.72-2.7s1.21-2.7 2.72-2.7Zm0 14.79h17.57c1.5 0 2.72 1.21 2.72 2.7s-1.21 2.7-2.72 2.7H49.46c-1.5 0-2.72-1.21-2.72-2.7s1.21-2.7 2.72-2.7Z" class="cls-1"/>
  <path d="M99.88 16.52H59.07v18.69c0 3.89-3.17 7.05-7.08 7.05H32.51v12.57c.52-.5 1.03-1 1.58-1.46a32.536 32.536 0 0 1 21.12-7.77c8.91 0 17.36 3.61 23.47 9.93h11.31c1.5 0 2.72 1.21 2.72 2.7s-1.21 2.7-2.72 2.7h-7.13c1.81 2.93 3.1 6.1 3.9 9.38h3.23c1.5 0 2.72 1.21 2.72 2.7s-1.21 2.7-2.72 2.7h-2.41c.45 6.66-1.12 13.46-4.77 19.31.42.34.79.69 1.15 1.09l11.38 13.23h4.49c3.91 0 7.08-3.15 7.08-7.05V23.57c0-3.89-3.17-7.05-7.08-7.05h.03ZM83.4 26.82h-7.68v3.75h6.63v2.67h-6.63v6.73h-3.2V24.15h10.89v2.67h-.02Zm7.43 13.15h-3.2V24.15h3.2v15.82ZM32.52 100.91v1.27c0 3.89 3.17 7.05 7.08 7.05h7.97a32.375 32.375 0 0 1-15.05-8.32Z" class="cls-1"/>
</svg>
