<svg xmlns="http://www.w3.org/2000/svg" viewBox="0 0 144 144">
  <defs/>
  <ellipse cx="52.27" cy="32.4" class="cls-1" rx="22.63" ry="22.53"/>
  <path d="m54.97 86.16.18-.14c.26-.21.53-.42.82-.6.08-.05.16-.08.24-.13.32-.18.63-.35.99-.48.05-.02.1-.03.13-.05.82-.31 1.71-.5 2.63-.5H71.9v-5.75c0-3.12 2.54-5.67 5.69-5.67h1.57a31.581 31.581 0 0 0-26.2-13.87h-1.41c-17.42.02-31.56 14.1-31.56 31.47v20.22c0 3.88 3.17 7.03 7.06 7.03h25.21V91.95c0-2.32 1.05-4.38 2.7-5.78v-.02ZM81.01 82.37c0-.8.65-1.45 1.45-1.45h15.19c.81 0 1.45.64 1.45 1.45v4.89h5.25v-5.71c0-3.12-2.54-5.67-5.69-5.67H81.12c-3.14 0-5.69 2.53-5.69 5.67v5.71h5.56v-4.89Z" class="cls-1"/>
  <path d="M90.06 107.43c-.39 0-.78-.1-1.12-.27L57.15 90.68a7.464 7.464 0 0 0-1.34 4.27v31.53c0 4.23 3.44 7.66 7.69 7.66h52.8c4.25 0 7.69-3.43 7.69-7.66V94.95c0-1.59-.5-3.04-1.34-4.27l-31.47 16.47c-.36.18-.74.27-1.13.27v.02Z" class="cls-1"/>
  <path d="M118.78 87.27H61.05l28.99 15.03 28.74-15.03z" class="cls-1"/>
</svg>
