<?xml version="1.0" encoding="utf-8"?>
<svg version="1.1" id="Layer_1" xmlns="http://www.w3.org/2000/svg" xmlns:xlink="http://www.w3.org/1999/xlink" x="0px" y="0px"
	 viewBox="0 0 144 144" style="enable-background:new 0 0 144 144;" xml:space="preserve">
<style type="text/css">
	.st0{fill:#774F8E;}
</style>
<ellipse class="st0" cx="52.3" cy="32.4" rx="22.6" ry="22.5"/>
<path class="st0" d="M55,86.2l0.2-0.1c0.3-0.2,0.5-0.4,0.8-0.6c0.1-0.1,0.2-0.1,0.2-0.1c0.3-0.2,0.6-0.3,1-0.5c0,0,0.1,0,0.1-0.1
	c0.8-0.3,1.7-0.5,2.6-0.5h11.9v-5.8c0-3.1,2.5-5.7,5.7-5.7h1.6C73.3,64.2,63.5,59,53,59h-1.4C34.1,59,20,73.1,20,90.4v20.2
	c0,3.9,3.2,7,7.1,7h25.2V91.9C52.3,89.6,53.3,87.6,55,86.2L55,86.2L55,86.2z M81,82.4c0-0.8,0.7-1.4,1.4-1.4h15.2
	c0.8,0,1.4,0.6,1.4,1.4v4.9h5.2v-5.7c0-3.1-2.5-5.7-5.7-5.7H81.1c-3.1,0-5.7,2.5-5.7,5.7v5.7H81L81,82.4L81,82.4z"/>
<path class="st0" d="M90.1,107.4c-0.4,0-0.8-0.1-1.1-0.3L57.2,90.7c-0.9,1.3-1.3,2.7-1.3,4.3v31.5c0,4.2,3.4,7.7,7.7,7.7h52.8
	c4.2,0,7.7-3.4,7.7-7.7V94.9c0-1.6-0.5-3-1.3-4.3l-31.5,16.5C90.8,107.3,90.4,107.4,90.1,107.4L90.1,107.4L90.1,107.4z"/>
<path class="st0" d="M118.8,87.3H61l29,15L118.8,87.3z"/>
</svg>
