<?xml version="1.0" encoding="UTF-8"?><svg id="Layer_1" xmlns="http://www.w3.org/2000/svg" viewBox="0 0 88.75 89.11"><defs><style>.cls-1{fill:#1d9cba;}</style></defs><circle class="cls-1" cx="19.97" cy="29.13" r="14"/><g><path class="cls-1" d="M32.51,46.2c.11-.19,.23-.38,.34-.57,.19-.3,.21-.55,.06-.89-.48-1.05-.89-2.13-1.37-3.18-1.02,.95-2.16,1.78-3.39,2.46,1.54,.56,2.99,1.3,4.36,2.17Z"/><path class="cls-1" d="M88.74,29.61c0-1.22-.51-1.89-1.69-2.19-2.26-.57-4.52-1.14-6.79-1.67-.45-.11-.68-.31-.85-.75-.4-1.05-.84-2.08-1.3-3.1-.16-.35-.16-.62,.05-.96,1.03-1.68,2.03-3.37,3.05-5.06,.78-1.3,.69-2.04-.38-3.11-1.64-1.64-3.27-3.28-4.91-4.91-1.01-1.01-1.78-1.1-3.01-.36-1.71,1.02-3.42,2.03-5.12,3.07-.34,.21-.6,.21-.95,.05-1.04-.47-2.09-.93-3.16-1.33-.41-.15-.56-.39-.65-.77-.55-2.27-1.1-4.53-1.67-6.79C61.02,.5,60.37,0,59.11,0c-2.43,0-4.85,0-7.28,0-1.22,0-1.9,.51-2.2,1.69-.57,2.28-1.14,4.57-1.68,6.85-.09,.4-.28,.61-.67,.76-1.13,.43-2.24,.91-3.33,1.42-.4,.18-.68,.2-1.07-.04-1.73-1.07-3.48-2.1-5.22-3.15-1.31-.78-2.06-.7-3.12,.36-1.64,1.64-3.28,3.27-4.91,4.91-.63,.63-.9,1.19-.83,1.82,4.89,2.99,8.18,8.36,8.18,14.5,0,4.91-2.1,9.33-5.43,12.43,.48,1.05,.89,2.13,1.37,3.18,.16,.34,.13,.58-.06,.89-.11,.19-.23,.38-.34,.57,3.99,2.55,7.12,6.32,8.87,10.78,.56-.34,1.12-.67,1.67-1.01,.4-.25,.71-.24,1.13-.05,1,.46,2.01,.89,3.04,1.27,.43,.16,.65,.38,.75,.84,.5,2.16,1.06,4.31,1.56,6.48,.21,.92,.66,1.61,1.53,2.02h8.84c.96-.43,1.35-1.22,1.57-2.21,.48-2.13,1.03-4.24,1.54-6.35,.09-.36,.24-.58,.62-.72,1.15-.44,2.28-.93,3.39-1.44,.34-.16,.58-.13,.88,.06,1.64,1,3.3,1.99,4.95,2.98,1.26,.75,2.05,.66,3.07-.36,1.64-1.64,3.28-3.27,4.91-4.92,1.04-1.05,1.13-1.79,.37-3.06-1.01-1.69-2.03-3.37-3.02-5.07-.12-.21-.14-.57-.05-.8,.41-1.07,.9-2.1,1.3-3.17,.15-.41,.39-.56,.77-.65,2.27-.55,4.53-1.11,6.79-1.68,1.23-.31,1.73-.96,1.73-2.23,0-2.42,0-4.85,0-7.27Zm-33.34,17.29c-7.68-.15-13.6-6.24-13.54-13.72,.06-7.68,6.22-13.6,13.7-13.54,7.68,.06,13.6,6.22,13.54,13.7-.06,7.68-6.22,13.52-13.7,13.56Z"/></g><path class="cls-1" d="M30.97,80.54v-4.13l.28-.6c.42-.92,1.16-1.6,2.09-1.97-.56-1.4-.25-2.89,.87-4.01l1.58-1.57c.96-.96,1.97-1.16,2.65-1.16,.5,0,.98,.1,1.46,.31,.01-.04,.03-.08,.05-.12v-2.1c0-10.79-8.75-19.54-19.54-19.54h-.87C8.75,45.65,0,54.4,0,65.19v12.56c0,2.41,1.96,4.37,4.37,4.37H31.89c-.32-.35-.53-.71-.65-.98l-.27-.59Z"/><path class="cls-1" d="M43.18,67.86h2.82c.3,.14,.43,.39,.5,.71,.15,.68,.33,1.35,.49,2.03,.03,.12,.08,.18,.2,.23,.35,.13,.68,.29,1.03,.42,.08,.03,.2,.02,.28-.02,.56-.32,1.1-.66,1.66-.98,.38-.23,.63-.2,.95,.12,.53,.53,1.06,1.06,1.58,1.58,.33,.33,.36,.57,.12,.98-.32,.53-.64,1.07-.96,1.6-.07,.12-.08,.21-.02,.34,.15,.32,.29,.66,.42,.99,.05,.13,.12,.19,.26,.22,.72,.17,1.43,.35,2.15,.53,.41,.1,.57,.31,.57,.72,0,.76,0,1.52,0,2.28,0,.43-.15,.63-.57,.74-.72,.18-1.43,.36-2.15,.53-.14,.03-.21,.09-.26,.23-.13,.33-.28,.66-.41,.99-.03,.07-.02,.19,.01,.26,.31,.54,.64,1.08,.96,1.62,.24,.41,.22,.65-.12,.98-.52,.52-1.05,1.05-1.57,1.57-.33,.33-.58,.36-.98,.12-.52-.31-1.04-.62-1.56-.94-.11-.07-.19-.08-.32-.02-.34,.16-.69,.31-1.05,.44-.13,.05-.19,.12-.22,.26-.17,.72-.35,1.43-.53,2.15-.1,.41-.31,.57-.72,.57-.76,0-1.52,0-2.28,0-.43,0-.63-.15-.74-.57-.18-.72-.36-1.43-.53-2.15-.03-.14-.1-.21-.23-.26-.34-.13-.68-.27-1.01-.43-.12-.06-.21-.05-.32,.02-.51,.32-1.03,.62-1.54,.93-.38,.23-.64,.2-.95-.11-.53-.53-1.07-1.06-1.6-1.6-.31-.31-.34-.57-.12-.95,.31-.52,.62-1.04,.94-1.56,.07-.11,.07-.19,.01-.3-.16-.34-.31-.69-.44-1.05-.05-.12-.12-.17-.23-.2-.68-.16-1.35-.34-2.03-.49-.31-.07-.57-.2-.71-.5v-2.82c.13-.28,.35-.42,.64-.49,.69-.16,1.38-.34,2.07-.5,.13-.03,.21-.08,.26-.22,.1-.29,.22-.58,.35-.86,.06-.12,.05-.21-.02-.32-.36-.58-.71-1.17-1.06-1.76-.23-.39-.2-.65,.12-.97,.52-.52,1.05-1.05,1.57-1.57,.34-.34,.58-.37,1-.12,.56,.34,1.13,.67,1.69,1.01,.11,.07,.19,.07,.3,.02,.36-.17,.73-.32,1.1-.47,.12-.05,.17-.12,.2-.23,.16-.68,.34-1.35,.49-2.03,.07-.31,.2-.57,.5-.71Zm5.77,10.62c0-2.39-1.98-4.36-4.36-4.35-2.39,0-4.36,1.98-4.35,4.36,0,2.39,1.98,4.36,4.36,4.35,2.39,0,4.36-1.98,4.35-4.36Z"/></svg>