<?xml version="1.0" encoding="utf-8"?>
<svg version="1.1" id="Layer_1" xmlns="http://www.w3.org/2000/svg" xmlns:xlink="http://www.w3.org/1999/xlink" x="0px" y="0px"
	 viewBox="0 0 144 144" style="enable-background:new 0 0 144 144;" xml:space="preserve">
<style type="text/css">
	.st0{fill:#1A699E;}
</style>
<ellipse class="st0" cx="118.3" cy="35.4" rx="18" ry="17.9"/>
<path class="st0" d="M118.9,56.5h-1.1c-13.9,0-25.1,11.2-25.1,25v3.2c5.1,4.6,8.3,11.1,8.3,18.4h37.4c3.1,0,5.6-2.5,5.6-5.6V81.5
	C144,67.7,132.8,56.5,118.9,56.5L118.9,56.5z"/>
<ellipse class="st0" cx="25.7" cy="35.4" rx="18" ry="17.9"/>
<path class="st0" d="M25.1,56.5h1.1c13.9,0,25.1,11.2,25.1,25v3.2c-5.1,4.6-8.3,11.1-8.3,18.4H5.6c-3.1,0-5.6-2.5-5.6-5.6V81.5
	C0,67.7,11.2,56.5,25.1,56.5z"/>
<ellipse class="st0" cx="72.1" cy="58.7" rx="18" ry="17.9"/>
<path class="st0" d="M92,126.5H52.2c-3.2,0-5.7-2.6-5.7-5.7v-15.4c0-14.1,11.5-25.6,25.7-25.6s25.7,11.4,25.7,25.6v15.4
	C97.7,124,95.2,126.5,92,126.5L92,126.5z"/>
</svg>
