<?xml version="1.0" encoding="UTF-8"?><svg id="Layer_1" xmlns="http://www.w3.org/2000/svg" viewBox="0 0 66.88 68.01"><defs><style>.cls-1{fill:#009b89;}</style></defs><g><circle class="cls-1" cx="19.97" cy="15.03" r="14"/><path class="cls-1" d="M35.57,68.01H4.37c-2.41,0-4.37-1.96-4.37-4.37v-12.56c0-10.79,8.75-19.54,19.54-19.54h.87c10.79,0,19.54,8.75,19.54,19.54v12.56c0,2.41-1.96,4.37-4.37,4.37Z"/></g><path class="cls-1" d="M55.11,41.17c.9,.03,1.71-.22,2.47-.67,1.3-.76,2.6-1.51,3.91-2.26,1.42-.82,2.84-1.63,4.25-2.46,.89-.52,1.3-1.45,1.08-2.37-.35-1.43-1.88-2.1-3.17-1.38-1.11,.62-2.21,1.28-3.32,1.9-.31,.17-.45,.37-.51,.73-.36,2.07-2.36,3.43-4.36,3.06-1.43-.26-2.82-.71-4.22-1.09-.32-.09-.5-.32-.58-.64-.12-.55,.38-1.2,1.21-.95,1.2,.35,2.4,.67,3.61,.96,.35,.08,.75,.09,1.09,0,.96-.22,1.61-1.08,1.62-2.06,0-1-.65-1.83-1.68-2.11-1.86-.5-3.73-.99-5.59-1.5-1.22-.33-2.37-.16-3.46,.47-2.3,1.34-4.62,2.67-6.93,4-.61,.35-.74,.8-.39,1.41,1.13,1.96,2.26,3.92,3.4,5.89,.36,.63,.8,.75,1.43,.39,.96-.56,1.93-1.12,2.9-1.67,.09-.05,.21-.1,.32-.1,.55,.02,1.1,.06,1.66,.09,1.76,.11,3.52,.23,5.28,.35Z"/><g><path class="cls-1" d="M43.22,6.42c1.47,0,2.94,.01,4.41,0,.86,0,1.43-.59,1.43-1.43,0-.69,0-1.38,0-2.07,0-.71,0-1.42,0-2.12,0-.34-.1-.6-.42-.74-.34-.14-.62-.02-.86,.22-1.69,1.64-3.37,3.27-5.06,4.9-.23,.23-.34,.49-.21,.79,.13,.31,.39,.44,.72,.44Z"/><path class="cls-1" d="M61.57,0h-11.14c.09,.26,.14,.53,.14,.83,0,.49,0,.98,0,1.47v2.69c0,1.68-1.23,2.9-2.91,2.92-.63,0-1.27,0-1.91,0h-2.52c-.3,0-.58-.07-.84-.17V24.51c0,1.11,.9,2.02,2.02,2.02h8.44l7.45,.04h1.28c1.11,0,2.02-.9,2.02-2.02V2.02C63.58,.9,62.68,0,61.57,0Zm-2.48,16.08c-.4,.1-.81,.2-1.21,.3-.08,.02-.12,.05-.14,.13-.07,.19-.16,.37-.23,.56-.02,.04-.01,.11,0,.15,.18,.31,.36,.61,.54,.92,.14,.23,.12,.36-.07,.55-.29,.3-.59,.59-.89,.89-.19,.18-.33,.2-.55,.07-.29-.18-.59-.35-.88-.53-.06-.04-.11-.05-.18-.01-.19,.09-.39,.17-.59,.25-.08,.03-.11,.07-.13,.15-.1,.41-.2,.81-.3,1.21-.06,.23-.17,.32-.41,.32-.43,0-.86,0-1.29,0-.24,0-.36-.09-.42-.32-.1-.4-.2-.81-.3-1.21-.02-.08-.05-.12-.13-.14-.19-.07-.38-.15-.57-.24-.07-.03-.12-.03-.18,.01-.29,.18-.58,.35-.87,.52-.22,.13-.36,.11-.54-.06-.3-.3-.6-.6-.9-.9-.17-.18-.19-.32-.07-.54,.18-.29,.35-.59,.53-.88,.04-.06,.04-.11,0-.17-.09-.19-.17-.39-.25-.59-.03-.07-.07-.1-.13-.11-.38-.09-.76-.19-1.15-.28-.18-.04-.32-.11-.4-.28v-1.59c.07-.16,.2-.24,.36-.28,.39-.09,.78-.19,1.17-.28,.07-.02,.12-.05,.15-.13,.06-.16,.13-.33,.2-.49,.03-.07,.03-.12-.01-.18-.2-.33-.4-.66-.6-.99-.13-.22-.11-.37,.07-.54,.29-.3,.59-.59,.89-.89,.19-.19,.33-.21,.56-.07,.32,.19,.64,.38,.95,.57,.06,.04,.11,.04,.17,0,.21-.09,.41-.18,.62-.27,.07-.03,.1-.07,.11-.13,.09-.38,.19-.76,.28-1.15,.04-.18,.11-.32,.28-.4h1.59c.17,.08,.24,.22,.28,.4,.09,.38,.19,.76,.28,1.15,.02,.07,.04,.1,.11,.13,.2,.07,.39,.17,.58,.24,.05,.02,.12,.01,.16-.01,.31-.18,.62-.37,.94-.56,.22-.13,.36-.11,.53,.07,.3,.3,.6,.6,.89,.89,.19,.19,.2,.32,.07,.55-.18,.3-.36,.6-.54,.9-.04,.07-.05,.12-.01,.19,.09,.18,.16,.37,.24,.56,.03,.08,.07,.11,.15,.13,.41,.1,.81,.2,1.21,.3,.23,.06,.32,.17,.32,.41,0,.43,0,.86,0,1.29,0,.24-.09,.36-.32,.42Z"/><path class="cls-1" d="M53.42,12.56c-1.35,0-2.46,1.12-2.46,2.46,0,1.35,1.12,2.46,2.46,2.46,1.35,0,2.46-1.12,2.46-2.46,0-1.35-1.12-2.46-2.46-2.46Z"/></g></svg>