<?xml version="1.0" encoding="utf-8"?>
<svg version="1.1" id="icon-service-provider" xmlns="http://www.w3.org/2000/svg" xmlns:xlink="http://www.w3.org/1999/xlink"
	 x="0px" y="0px" viewBox="0 0 144 144" style="enable-background:new 0 0 144 144;" xml:space="preserve">
<style type="text/css">
	.st0{fill:#1B7288;}
</style>
<path class="st0" d="M100.4,2.4c-13.9,0-25.2,11.2-25.2,25.1c0,5.8,2,11.3,5.6,15.8L78,49c-0.3,0.5-0.2,1.1,0.1,1.6
	c0.3,0.5,0.9,0.7,1.5,0.7l10.4-1c3.3,1.5,6.7,2.2,10.3,2.2c13.9,0,25.2-11.2,25.2-25.1S114.3,2.4,100.4,2.4z M87.9,35.7
	c0-0.9,0.7-1.6,1.6-1.6h21.7c0.9,0,1.6,0.7,1.6,1.6s-0.7,1.6-1.6,1.6H89.6C88.7,37.3,87.9,36.6,87.9,35.7z M87.9,27.5
	c0-0.9,0.7-1.6,1.6-1.6h21.7c0.9,0,1.6,0.7,1.6,1.6s-0.7,1.6-1.6,1.6H89.6C88.7,29.1,87.9,28.4,87.9,27.5z M111.2,20.8H89.5
	c-0.9,0-1.6-0.7-1.6-1.6s0.7-1.6,1.6-1.6h21.7c0.9,0,1.6,0.7,1.6,1.6S112.1,20.8,111.2,20.8z M50.7,22.4c-11.1,0-20.3,7.9-22.2,18.4
	c0.2-0.1,0.5-0.1,0.8-0.1c1.5,0,2.8,1.3,2.8,2.8c0,1.2,0,2.3,0,3.5c0,0.7-0.3,1.4-0.8,1.9c1.9,4.4,5.2,6.7,10,7
	c0.5-1.5,1.9-2.7,3.6-2.7c1.6,0,3.3,0,4.9,0c2.1,0,3.8,1.8,3.8,3.8c0,2-1.6,3.8-3.7,3.9c-0.9,0-1.7,0-2.6,0s-1.7,0-2.6,0
	c-1.7-0.1-3-1.2-3.5-2.8c-5.3,0-10.2-3.4-12.1-8.3c-0.2,0-0.4,0-0.5-0.1c2.1,10.2,11.2,17.9,22.1,17.9c12.5,0,22.6-10.1,22.6-22.5
	S63.2,22.4,50.7,22.4L50.7,22.4L50.7,22.4z M51.5,71.5H50c-17.4,0-31.6,14.1-31.6,31.4v20.2c0,3.2,2.1,5.8,5,6.7
	c-0.6-1.5-0.9-3.1-0.9-4.7v-20.5c0-7.3,6-13.2,13.2-13.2h30.3c7.3,0,13.2,5.9,13.2,13.2v20.5c0,1.6-0.3,3.1-0.8,4.5
	c2.6-1,4.5-3.6,4.5-6.6v-20.2C83,85.5,68.9,71.5,51.5,71.5L51.5,71.5L51.5,71.5z M25.5,137h51c1.3,0,2.3,1,2.3,2.3c0,0,0,0,0,0
	c0,1.3-1,2.3-2.3,2.3h-51c-1.3,0-2.3-1-2.3-2.3c0,0,0,0,0,0C23.1,138,24.2,137,25.5,137z"/>
<path class="st0" d="M66.1,96.3H35.8c-4.6,0-8.4,3.8-8.4,8.4v20.5c0,4.6,3.8,8.4,8.4,8.4h30.3c4.6,0,8.4-3.8,8.4-8.4v-20.5
	C74.5,100,70.7,96.3,66.1,96.3z M59,116.4c-0.6,0.1-1.2,0.3-1.7,0.4c-0.1,0-0.2,0.1-0.2,0.2c-0.1,0.3-0.2,0.5-0.3,0.8
	c0,0.1,0,0.1,0,0.2c0.3,0.4,0.5,0.9,0.8,1.3c0.2,0.3,0.2,0.5-0.1,0.8l-1.3,1.3c-0.3,0.3-0.5,0.3-0.8,0.1c-0.4-0.2-0.8-0.5-1.2-0.8
	c-0.1-0.1-0.2-0.1-0.3,0c-0.3,0.1-0.5,0.2-0.8,0.3c-0.1,0.1-0.2,0.1-0.2,0.2c-0.1,0.6-0.3,1.1-0.4,1.7c-0.1,0.3-0.2,0.4-0.6,0.4H50
	c-0.3,0-0.5-0.1-0.6-0.4c-0.2-0.6-0.3-1.1-0.4-1.7c0-0.1-0.1-0.2-0.2-0.2c-0.3-0.1-0.5-0.2-0.8-0.3c-0.1-0.1-0.2,0-0.3,0
	c-0.4,0.3-0.8,0.5-1.2,0.7c-0.3,0.2-0.5,0.2-0.8-0.1c-0.4-0.4-0.9-0.8-1.3-1.3c-0.2-0.2-0.3-0.4-0.1-0.8c0.2-0.4,0.5-0.8,0.8-1.2
	c0-0.1,0-0.1,0-0.2c-0.1-0.3-0.2-0.6-0.4-0.8c0-0.1-0.1-0.1-0.2-0.2c-0.5-0.1-1.1-0.3-1.6-0.4c-0.3-0.1-0.5-0.2-0.6-0.4v-2.2
	c0.1-0.2,0.3-0.3,0.5-0.4c0.5-0.1,1.1-0.3,1.7-0.4c0.1,0,0.2-0.1,0.2-0.2c0.1-0.2,0.2-0.5,0.3-0.7c0-0.1,0-0.2,0-0.3
	c-0.3-0.5-0.6-0.9-0.8-1.4c-0.2-0.3-0.2-0.5,0.1-0.8l1.3-1.3c0.3-0.3,0.5-0.3,0.8-0.1c0.5,0.3,0.9,0.5,1.4,0.8
	c0.1,0.1,0.2,0.1,0.2,0c0.3-0.1,0.6-0.3,0.9-0.4c0.1,0,0.1-0.1,0.2-0.2c0.1-0.6,0.3-1.1,0.4-1.6c0-0.3,0.2-0.4,0.4-0.6h2.3
	c0.2,0.1,0.3,0.3,0.4,0.6c0.1,0.6,0.3,1.1,0.4,1.6c0,0.1,0.1,0.1,0.2,0.2l0.8,0.3c0.1,0,0.2,0,0.2,0c0.5-0.3,0.9-0.5,1.3-0.8
	c0.3-0.2,0.5-0.2,0.8,0.1l1.3,1.3c0.3,0.3,0.3,0.4,0.1,0.8c-0.3,0.4-0.5,0.8-0.8,1.3c-0.1,0.1-0.1,0.2,0,0.3
	c0.1,0.3,0.2,0.5,0.3,0.8c0,0.1,0.1,0.1,0.2,0.2c0.6,0.1,1.2,0.3,1.7,0.4c0.3,0.1,0.5,0.2,0.5,0.6v1.8
	C59.4,116.1,59.3,116.2,59,116.4L59,116.4L59,116.4z"/>
<path class="st0" d="M50.9,111.4c-1.9,0-3.5,1.6-3.5,3.5s1.6,3.5,3.5,3.5s3.5-1.6,3.5-3.5S52.8,111.4,50.9,111.4z"/>
</svg>
