<svg xmlns="http://www.w3.org/2000/svg" viewBox="0 0 144 144">
  <defs/>
  <ellipse cx="70.46" cy="54.08" class="cls-1" rx="23.5" ry="23.41"/>
  <path d="M57.02 29.03c0-.15.02-.3.02-.47 0-12.92-10.53-23.41-23.5-23.41S10.02 15.64 10.02 28.56s10.53 23.41 23.5 23.41c3.07 0 5.99-.6 8.68-1.67 1.24-9.21 6.9-17.05 14.81-21.28v.02ZM56.73 78.99c-7.96-4.36-13.6-12.41-14.62-21.82-2.52-.62-5.14-.99-7.84-.99h-1.46C14.69 56.2 0 70.81 0 88.85v21c0 4.03 3.29 7.31 7.34 7.31H31.9v-2.78c0-16.23 10.36-30.09 24.83-35.38v-.02Z" class="cls-1"/>
  <path d="M96.65 142.67H44.27c-4.05 0-7.34-3.28-7.34-7.31v-21c0-18.04 14.69-32.67 32.81-32.67h1.46c18.12 0 32.81 14.63 32.81 32.67v21c0 4.03-3.29 7.31-7.34 7.31h-.02ZM136.71 1.33H71.27c-4.05 0-7.32 3.26-7.32 7.29v17.82c2.1-.48 4.26-.77 6.51-.77 6.5 0 12.47 2.19 17.28 5.85.15-.2.34-.37.55-.52l12.98-8.49c.62-.42 1.39-.52 2.12-.3.72.22 1.29.74 1.59 1.42l5.56 13.12 20.47-18.12c.1-.1.22-.17.34-.25l-4-3.9h11.74v11.44l-4.26-4.15c-.13.22-.29.42-.49.6l-23.1 20.45a2.5 2.5 0 0 1-1.68.64c-.18 0-.37-.02-.55-.07-.79-.18-1.44-.72-1.76-1.47l-5.76-13.58-10.04 6.57c4.67 5.07 7.54 11.79 7.54 19.18 0 3.81-.77 7.44-2.13 10.75h39.84c4.05 0 7.32-3.26 7.32-7.29V8.62c0-4.03-3.27-7.29-7.32-7.29h.03Z" class="cls-1"/>
</svg>
