<svg id="Layer_1" data-name="Layer 1" xmlns="http://www.w3.org/2000/svg" width="5.37in" height="1.73in" viewBox="0 0 386.52 124.86"><defs><style>.cls-1{fill:#fff;}</style></defs><title>hrsa-logo-white</title><path class="cls-1" d="M225.2,58a13.05,13.05,0,0,0,1.15,5.54c2.33,5.08,9.29,6.14,15.24,6.14,5.23,0,13.2-1.42,13.2-7.67,0-4.37-4.49-5.55-22.34-9.68-16.4-3.78-35.12-7.44-35.12-24.43C197.33,8.38,217.8,0,239.12,0c22.5,0,42.38,7,43.24,27.5H252.18c.58-3.18-1.16-5.31-3.77-6.73A19.52,19.52,0,0,0,239,18.65c-4.35,0-11.46.94-11.46,5.67.58,6,15.38,7.31,30,10.62s29.17,8.85,29.17,24.31c0,22-24.81,29-47.89,29-11.75,0-45.27-3.42-45.56-30.33Z"/><path class="cls-1" d="M317.59,2h31.2l37.73,84.27H353.43l-4.35-12H316.15l-4.65,12H279.43ZM342.7,56.18l-9.29-26h-.29l-10,26Z"/><path class="cls-1" d="M98.93,2h60.8c18.14,0,33.81,8.14,33.81,24.08,0,8.73-4.93,17.94-15.52,21.13,8.7,2.71,14.08,10.5,15.23,21,.44,4.14.59,14.17,3.49,18.06H164.82a50.48,50.48,0,0,1-2.62-13c-.87-8-1.74-16.41-14.36-16.41h-17V86.28H98.93Zm31.93,36.83h16.69c5.95,0,14.07-.83,14.07-8.39,0-5.31-3.62-8.38-15.82-8.38H130.86Z"/><polygon class="cls-1" points="0.7 2.01 32.62 2.01 32.62 31.28 62.51 31.28 62.51 2.01 94.43 2.01 94.43 86.28 62.51 86.28 62.51 55.51 32.62 55.51 32.62 86.28 0.7 86.28 0.7 2.01"/><polygon class="cls-1" points="0 103.03 2.63 103.03 2.63 111.6 7.47 111.6 7.47 103.03 10.1 103.03 10.1 124.44 7.47 124.44 7.47 114.48 2.63 114.48 2.63 124.44 0 124.44 0 103.03"/><path class="cls-1" d="M14.81,116.79v.93c0,2.16.21,4.92,2.08,4.92s2-2.64,2-3.6h2.36c0,3.57-1.67,5.81-4.36,5.81-2,0-4.55-.78-4.55-8.24,0-4.23.69-8.72,4.59-8.72,3.46,0,4.38,2.7,4.38,7.19v1.71Zm4-2.22v-.87c0-2-.5-3.6-1.91-3.6-1.59,0-2.08,2-2.08,4.14v.33Z"/><path class="cls-1" d="M31.5,121.08c0,.6.27,1.14.64,1.14a1,1,0,0,0,.42-.09v2.1a2.45,2.45,0,0,1-1.23.39,2,2,0,0,1-2.1-2.13h0c-.67,1.59-1.64,2.37-3.09,2.37-2,0-3.23-1.44-3.23-4.53,0-3.6,1.2-4.35,2.88-5.07l1.94-.69a1.81,1.81,0,0,0,1.45-2.07c0-1.47-.39-2.39-1.7-2.39-1.66,0-1.9,1.52-1.9,3.08H23.19c0-3.41,1.09-5.3,4.36-5.3,2.19,0,3.95,1.11,3.95,4Zm-2.36-5.16a14.5,14.5,0,0,1-2.76,1.5,2.92,2.92,0,0,0-1,2.61c0,1.35.51,2.43,1.55,2.43,1.49,0,2.23-1.47,2.23-3.84Z"/><rect class="cls-1" x="34.15" y="103.03" width="2.49" height="21.41"/><path class="cls-1" d="M38.05,108.31h1.71v-4.59h2.49v4.59h2v2.4h-2v9.62c0,1.26.28,1.71,1.13,1.71a3.19,3.19,0,0,0,.9-.1v2.41a6.43,6.43,0,0,1-2,.27c-1.68,0-2.51-.61-2.51-3.9v-10H38.05Z"/><path class="cls-1" d="M45.57,103h2.5v7l.06.07a3.54,3.54,0,0,1,3-2.23c1.89,0,3.09,1.11,3.09,4.39v12.17H51.78V113.37c0-2.1-.49-2.9-1.73-2.9-1,0-2,1-2,3.14v10.83h-2.5Z"/><path class="cls-1" d="M62.37,103h5.81c2.31,0,4.18,1.5,4.18,5.52,0,2.76-1,4.88-2.75,5.24v.06c1.64.21,2.49,1.38,2.59,4.38,0,1.38,0,3.06.09,4.35a2.42,2.42,0,0,0,.78,1.86h-3a4.33,4.33,0,0,1-.44-1.89c-.09-1.29-.07-2.49-.12-4,0-2.34-.59-3.36-2.39-3.36H65v9.3H62.37Zm4.73,9.53c1.68,0,2.63-1.32,2.63-3.48s-.76-3.47-2.49-3.47H65v7Z"/><path class="cls-1" d="M76.75,116.79v.93c0,2.16.2,4.92,2.07,4.92s2-2.64,2-3.6h2.36c0,3.57-1.66,5.81-4.36,5.81-2,0-4.54-.78-4.54-8.24,0-4.23.69-8.72,4.58-8.72,3.47,0,4.39,2.7,4.39,7.19v1.71Zm4-2.22v-.87c0-2-.51-3.6-1.92-3.6-1.59,0-2.07,2-2.07,4.14v.33Z"/><path class="cls-1" d="M90.64,113v-.42c0-1.28-.35-2.48-1.64-2.48-1,0-1.78.59-1.78,2.09,0,1.26.44,1.77,1.76,2.37l1.59.72c1.84.81,2.7,2.1,2.7,4.65,0,3.45-1.94,4.92-4.46,4.92-3.13,0-4.08-1.89-4.08-5v-.6H87v.51c0,1.86.5,2.88,1.94,2.88s2-.9,2-2.37a2.34,2.34,0,0,0-1.36-2.37l-2-.93c-1.86-.84-2.65-2.07-2.65-4.65,0-3,1.69-4.44,4.24-4.44,3.16,0,3.88,2.4,3.88,4.41V113Z"/><path class="cls-1" d="M99.24,107.88c3.62,0,4.64,3.48,4.64,8.49s-1.17,8.49-4.64,8.49-4.61-3.48-4.61-8.49,1-8.49,4.61-8.49m0,14.58c1.83,0,2.15-2,2.15-6.09,0-3.57-.32-6.09-2.15-6.09s-2.12,2.52-2.12,6.09c0,4.11.33,6.09,2.12,6.09"/><path class="cls-1" d="M112.14,122.55h-.06a3.51,3.51,0,0,1-3.19,2.31c-1.85,0-3.09-1.11-3.09-5.28V108.31h2.49v11.57c0,1.8.62,2.4,1.69,2.4s2-.9,2-2.7V108.31h2.49v16.13h-2.35Z"/><path class="cls-1" d="M116.9,108.31h2.49v2.51h0c.55-1.8,1.47-2.93,2.88-2.93a1.35,1.35,0,0,1,.6.12v3.29a3.71,3.71,0,0,0-1-.18c-1.13,0-2.49.66-2.49,3.66v9.66H116.9Z"/><path class="cls-1" d="M132.4,118.56c-.16,3.87-1.18,6.29-4.24,6.29-3.6,0-4.61-3.47-4.61-8.48s1-8.49,4.61-8.49,4.26,3.78,4.26,5.79h-2.49c0-1.5-.32-3.44-1.77-3.39-1.8,0-2.13,2.52-2.13,6.09s.33,6.08,2.13,6.08c1.38,0,1.89-1.46,1.89-3.89Z"/><path class="cls-1" d="M136.42,116.79v.93c0,2.16.2,4.92,2.07,4.92s2-2.64,2-3.6h2.35c0,3.57-1.66,5.81-4.36,5.81-2,0-4.54-.78-4.54-8.24,0-4.23.69-8.72,4.59-8.72,3.46,0,4.38,2.7,4.38,7.19v1.71Zm4-2.22v-.87c0-2-.51-3.6-1.92-3.6-1.59,0-2.07,2-2.07,4.14v.33Z"/><path class="cls-1" d="M150.31,113v-.42c0-1.28-.35-2.48-1.64-2.48-1,0-1.78.59-1.78,2.09,0,1.26.44,1.77,1.76,2.37l1.59.72c1.84.81,2.7,2.1,2.7,4.65,0,3.45-1.94,4.92-4.46,4.92-3.13,0-4.08-1.89-4.08-5v-.6h2.22v.51c0,1.86.51,2.88,1.94,2.88s2-.9,2-2.37a2.34,2.34,0,0,0-1.36-2.37l-2-.93c-1.87-.84-2.66-2.07-2.66-4.65,0-3,1.69-4.44,4.25-4.44,3.15,0,3.87,2.4,3.87,4.41V113Z"/><path class="cls-1" d="M168.84,118a8.47,8.47,0,0,0,.64-3.27v-.42h2.08v.27a13.48,13.48,0,0,1-1.41,5.82l2.24,4.08H169.6l-1-1.83a5.25,5.25,0,0,1-4.14,2.24c-3.81,0-4.85-3.65-4.85-5.9a7.65,7.65,0,0,1,2.31-5.61l1-1-.63-1.2a8.35,8.35,0,0,1-1.06-3.5c0-3.06,1.73-4.59,3.92-4.59,1.22,0,3.62.78,3.62,4.34a6,6,0,0,1-2,4.51l-.86.8Zm-5.22-3.06a5.32,5.32,0,0,0-1.52,3.81c0,1.92,1.27,3.42,2.79,3.42a3.29,3.29,0,0,0,2.56-1.65l-3.34-6.12ZM165.4,110a4.4,4.4,0,0,0,1.2-2.77c0-1.25-.6-2-1.57-2-.67,0-1.54.45-1.54,1.86a6.15,6.15,0,0,0,1,3l.36.64Z"/><path class="cls-1" d="M181.3,117.81v.54c0,2.61.87,3.93,2.7,3.93,1.66,0,2.49-1.53,2.49-3.12,0-2.25-.88-3.24-2.35-3.81l-1.8-.81c-2.4-1.2-3.44-2.81-3.44-5.88,0-3.89,2-6,5.12-6,4.22,0,4.66,3.42,4.66,5.63v.49h-2.63v-.45c0-2-.67-3.09-2.31-3.09-1.13,0-2.21.81-2.21,3.09,0,1.83.72,2.75,2.47,3.62l1.77.84c2.33,1.08,3.35,2.73,3.35,5.67,0,4.56-2.12,6.44-5.44,6.44-4.09,0-5-3.53-5-6.53v-.51Z"/><path class="cls-1" d="M193.23,116.79v.93c0,2.16.21,4.92,2.08,4.92s2-2.64,2-3.6h2.35c0,3.57-1.66,5.81-4.36,5.81-2,0-4.54-.78-4.54-8.24,0-4.23.69-8.72,4.59-8.72,3.46,0,4.38,2.7,4.38,7.19v1.71Zm4-2.22v-.87c0-2-.51-3.6-1.91-3.6-1.6,0-2.08,2-2.08,4.14v.33Z"/><path class="cls-1" d="M201.77,108.31h2.49v2.51h.05c.55-1.8,1.47-2.93,2.88-2.93a1.38,1.38,0,0,1,.6.12v3.29a3.78,3.78,0,0,0-1-.18c-1.13,0-2.49.66-2.49,3.66v9.66h-2.49Z"/><polygon class="cls-1" points="208.41 108.31 211.09 108.31 213.26 121.02 213.3 121.02 215.27 108.31 217.92 108.31 214.64 124.44 211.73 124.44 208.41 108.31"/><path class="cls-1" d="M219.4,102.79h2.48V106H219.4Zm0,5.52h2.48v16.13H219.4Z"/><path class="cls-1" d="M232.78,118.56c-.16,3.87-1.18,6.29-4.25,6.29-3.6,0-4.61-3.47-4.61-8.48s1-8.49,4.61-8.49,4.27,3.78,4.27,5.79h-2.49c0-1.5-.32-3.44-1.78-3.39-1.79,0-2.12,2.52-2.12,6.09s.33,6.08,2.12,6.08c1.39,0,1.9-1.46,1.9-3.89Z"/><path class="cls-1" d="M236.8,116.79v.93c0,2.16.2,4.92,2.07,4.92s2-2.64,2-3.6h2.36c0,3.57-1.66,5.81-4.36,5.81-2,0-4.55-.78-4.55-8.24,0-4.23.69-8.72,4.59-8.72,3.46,0,4.38,2.7,4.38,7.19v1.71Zm4-2.22v-.87c0-2-.5-3.6-1.91-3.6-1.59,0-2.07,2-2.07,4.14v.33Z"/><path class="cls-1" d="M250.68,113v-.42c0-1.28-.34-2.48-1.64-2.48-1,0-1.77.59-1.77,2.09,0,1.26.44,1.77,1.75,2.37l1.6.72c1.84.81,2.7,2.1,2.7,4.65,0,3.45-1.94,4.92-4.46,4.92-3.13,0-4.08-1.89-4.08-5v-.6H247v.51c0,1.86.51,2.88,1.94,2.88s2-.9,2-2.37a2.34,2.34,0,0,0-1.36-2.37l-2-.93c-1.87-.84-2.65-2.07-2.65-4.65,0-3,1.68-4.44,4.24-4.44,3.16,0,3.88,2.4,3.88,4.41V113Z"/><path class="cls-1" d="M263.12,103h3.37l4.34,21.41h-2.75l-1-5.25h-4.82l-1.06,5.25h-2.75Zm3.51,13.43-1.89-10.55h-.05l-2,10.55Z"/><path class="cls-1" d="M278.17,122.46h-.05c-.32,1.05-.94,2.39-2.72,2.39-2.91,0-4.06-3.14-4.06-8.69,0-7.16,1.94-8.27,3.83-8.27a3,3,0,0,1,2.81,2.3h0V103h2.49v21.41h-2.35Zm-2.27-12c-1.43,0-1.93,1.5-1.93,5.85,0,3.66.37,6,2.1,6s2.1-2.28,2.1-5.73c0-3.87-.35-6.09-2.27-6.09"/><path class="cls-1" d="M283,108.31h2.35v1.89h.07a3.46,3.46,0,0,1,3-2.31,2.83,2.83,0,0,1,2.89,2.45c.71-1.55,1.64-2.45,3.14-2.45,1.75,0,3,1.16,3,4.28v12.27H295V113.37c0-2.1-.48-2.91-1.49-2.91s-2,1.05-2,3.15v10.83H289V113.37c0-2.1-.48-2.91-1.52-2.91s-2,1.05-2,3.15v10.83H283Z"/><path class="cls-1" d="M300.12,102.79h2.49V106h-2.49Zm0,5.52h2.49v16.13h-2.49Z"/><path class="cls-1" d="M305.12,108.31h2.35v1.89h.07a3.49,3.49,0,0,1,3.18-2.31c1.9,0,3.1,1.11,3.1,4.38v12.17h-2.49V113.37c0-2.1-.49-2.91-1.73-2.91-1,0-2,1.05-2,3.15v10.83h-2.49Z"/><path class="cls-1" d="M316.33,102.79h2.49V106h-2.49Zm0,5.52h2.49v16.13h-2.49Z"/><path class="cls-1" d="M326.69,113v-.42c0-1.28-.34-2.48-1.64-2.48-1,0-1.77.59-1.77,2.09,0,1.26.44,1.77,1.75,2.37l1.6.72c1.84.81,2.69,2.1,2.69,4.65,0,3.45-1.93,4.92-4.45,4.92-3.13,0-4.08-1.89-4.08-5v-.6H323v.51c0,1.86.51,2.88,1.94,2.88s2-.9,2-2.37a2.34,2.34,0,0,0-1.36-2.37l-2-.93c-1.87-.84-2.65-2.07-2.65-4.65,0-3,1.68-4.44,4.24-4.44,3.16,0,3.87,2.4,3.87,4.41V113Z"/><path class="cls-1" d="M330.06,108.31h1.71v-4.59h2.49v4.59h2v2.4h-2v9.62c0,1.26.28,1.71,1.14,1.71a3.16,3.16,0,0,0,.89-.1v2.41a6.41,6.41,0,0,1-2,.27c-1.69,0-2.52-.61-2.52-3.9v-10h-1.71Z"/><path class="cls-1" d="M337.58,108.31h2.5v2.51h0c.56-1.8,1.48-2.93,2.88-2.93a1.4,1.4,0,0,1,.61.12v3.29a3.78,3.78,0,0,0-1-.18c-1.13,0-2.49.66-2.49,3.66v9.66h-2.5Z"/><path class="cls-1" d="M352.86,121.08c0,.6.28,1.14.64,1.14a.94.94,0,0,0,.42-.09v2.1a2.45,2.45,0,0,1-1.22.39,2,2,0,0,1-2.1-2.13h-.05c-.67,1.59-1.63,2.37-3.09,2.37-2,0-3.22-1.44-3.22-4.53,0-3.6,1.19-4.35,2.88-5.07l1.93-.69a1.82,1.82,0,0,0,1.46-2.07c0-1.47-.39-2.39-1.71-2.39-1.66,0-1.89,1.52-1.89,3.08h-2.35c0-3.41,1.08-5.3,4.36-5.3,2.19,0,3.94,1.11,3.94,4Zm-2.35-5.16a14.58,14.58,0,0,1-2.77,1.5,2.91,2.91,0,0,0-1,2.61c0,1.35.5,2.43,1.54,2.43,1.5,0,2.24-1.47,2.24-3.84Z"/><path class="cls-1" d="M354.29,108.31H356v-4.59h2.49v4.59h2v2.4h-2v9.62c0,1.26.28,1.71,1.13,1.71a3.19,3.19,0,0,0,.9-.1v2.41a6.43,6.43,0,0,1-2,.27c-1.68,0-2.51-.61-2.51-3.9v-10h-1.71Z"/><path class="cls-1" d="M361.93,102.79h2.49V106h-2.49Zm0,5.52h2.49v16.13h-2.49Z"/><path class="cls-1" d="M371.06,107.88c3.63,0,4.64,3.48,4.64,8.49s-1.17,8.49-4.64,8.49-4.61-3.48-4.61-8.49,1-8.49,4.61-8.49m0,14.58c1.83,0,2.15-2,2.15-6.09,0-3.57-.32-6.09-2.15-6.09S369,112.8,369,116.37c0,4.11.32,6.09,2.11,6.09"/><path class="cls-1" d="M377.62,108.31H380v1.89H380a3.5,3.5,0,0,1,3.18-2.31c1.9,0,3.1,1.11,3.1,4.38v12.17h-2.49V113.37c0-2.1-.49-2.91-1.73-2.91-1,0-2,1.05-2,3.15v10.83h-2.49Z"/></svg>